G04*
G04 #@! TF.GenerationSoftware,Altium Limited,Altium Designer,19.0.15 (446)*
G04*
G04 Layer_Color=16711935*
%FSLAX25Y25*%
%MOIN*%
G70*
G01*
G75*
%ADD10C,0.01000*%
D10*
X27559Y15748D02*
X27516Y16750D01*
X27389Y17744D01*
X27178Y18724D01*
X26884Y19683D01*
X26511Y20613D01*
X26059Y21508D01*
X25534Y22362D01*
X24937Y23168D01*
X24275Y23921D01*
X23551Y24614D01*
X22771Y25244D01*
X21941Y25806D01*
X21065Y26294D01*
X20152Y26707D01*
X19207Y27041D01*
X18236Y27294D01*
X17248Y27463D01*
X16249Y27548D01*
X15247D01*
X14248Y27463D01*
X13260Y27294D01*
X12290Y27041D01*
X11344Y26707D01*
X10431Y26294D01*
X9555Y25806D01*
X8725Y25244D01*
X7945Y24614D01*
X7221Y23921D01*
X6559Y23168D01*
X5962Y22362D01*
X5437Y21508D01*
X4986Y20613D01*
X4612Y19683D01*
X4318Y18724D01*
X4107Y17744D01*
X3980Y16750D01*
X3937Y15748D01*
X3980Y14746D01*
X4107Y13752D01*
X4318Y12772D01*
X4612Y11813D01*
X4986Y10883D01*
X5437Y9988D01*
X5962Y9134D01*
X6559Y8328D01*
X7221Y7576D01*
X7945Y6882D01*
X8725Y6252D01*
X9556Y5691D01*
X10431Y5202D01*
X11344Y4789D01*
X12290Y4455D01*
X13260Y4202D01*
X14248Y4033D01*
X15247Y3948D01*
X16249D01*
X17248Y4033D01*
X18236Y4202D01*
X19207Y4455D01*
X20152Y4789D01*
X21065Y5202D01*
X21941Y5691D01*
X22771Y6252D01*
X23551Y6882D01*
X24275Y7576D01*
X24938Y8328D01*
X25534Y9134D01*
X26059Y9988D01*
X26511Y10883D01*
X26884Y11813D01*
X27178Y12772D01*
X27389Y13752D01*
X27516Y14746D01*
X27559Y15748D01*
Y125984D02*
X27516Y126986D01*
X27389Y127980D01*
X27178Y128960D01*
X26884Y129919D01*
X26511Y130849D01*
X26059Y131744D01*
X25534Y132598D01*
X24937Y133404D01*
X24275Y134157D01*
X23551Y134851D01*
X22771Y135480D01*
X21941Y136042D01*
X21065Y136531D01*
X20152Y136944D01*
X19207Y137277D01*
X18236Y137530D01*
X17248Y137700D01*
X16249Y137785D01*
X15247D01*
X14248Y137700D01*
X13260Y137530D01*
X12290Y137277D01*
X11344Y136944D01*
X10431Y136531D01*
X9555Y136042D01*
X8725Y135480D01*
X7945Y134851D01*
X7221Y134157D01*
X6559Y133404D01*
X5962Y132598D01*
X5437Y131744D01*
X4986Y130849D01*
X4612Y129919D01*
X4318Y128960D01*
X4107Y127980D01*
X3980Y126986D01*
X3937Y125984D01*
X3980Y124983D01*
X4107Y123988D01*
X4318Y123008D01*
X4612Y122049D01*
X4986Y121119D01*
X5437Y120224D01*
X5962Y119370D01*
X6559Y118564D01*
X7221Y117812D01*
X7945Y117118D01*
X8725Y116488D01*
X9556Y115927D01*
X10431Y115438D01*
X11344Y115025D01*
X12290Y114691D01*
X13260Y114438D01*
X14248Y114269D01*
X15247Y114184D01*
X16249D01*
X17248Y114269D01*
X18236Y114438D01*
X19207Y114691D01*
X20152Y115025D01*
X21065Y115438D01*
X21941Y115927D01*
X22771Y116488D01*
X23551Y117118D01*
X24275Y117812D01*
X24938Y118564D01*
X25534Y119370D01*
X26059Y120224D01*
X26511Y121119D01*
X26884Y122050D01*
X27178Y123008D01*
X27389Y123988D01*
X27516Y124983D01*
X27559Y125984D01*
X377953D02*
X377910Y126986D01*
X377783Y127980D01*
X377572Y128960D01*
X377278Y129919D01*
X376904Y130849D01*
X376453Y131744D01*
X375927Y132598D01*
X375331Y133404D01*
X374669Y134157D01*
X373945Y134851D01*
X373165Y135480D01*
X372334Y136042D01*
X371459Y136531D01*
X370546Y136944D01*
X369600Y137277D01*
X368630Y137530D01*
X367642Y137700D01*
X366643Y137785D01*
X365640D01*
X364641Y137700D01*
X363653Y137530D01*
X362683Y137277D01*
X361738Y136944D01*
X360824Y136531D01*
X359949Y136042D01*
X359119Y135480D01*
X358338Y134851D01*
X357615Y134157D01*
X356952Y133404D01*
X356356Y132598D01*
X355831Y131744D01*
X355379Y130849D01*
X355005Y129919D01*
X354712Y128960D01*
X354501Y127980D01*
X354373Y126986D01*
X354331Y125984D01*
X354373Y124983D01*
X354501Y123988D01*
X354712Y123008D01*
X355005Y122049D01*
X355379Y121119D01*
X355831Y120224D01*
X356356Y119370D01*
X356952Y118564D01*
X357615Y117812D01*
X358338Y117118D01*
X359119Y116488D01*
X359949Y115927D01*
X360824Y115438D01*
X361738Y115025D01*
X362683Y114691D01*
X363653Y114438D01*
X364641Y114269D01*
X365640Y114184D01*
X366643D01*
X367642Y114269D01*
X368630Y114438D01*
X369600Y114691D01*
X370546Y115025D01*
X371459Y115438D01*
X372334Y115927D01*
X373165Y116488D01*
X373945Y117118D01*
X374669Y117812D01*
X375331Y118564D01*
X375927Y119370D01*
X376453Y120224D01*
X376904Y121119D01*
X377278Y122050D01*
X377572Y123008D01*
X377783Y123988D01*
X377910Y124983D01*
X377953Y125984D01*
Y15748D02*
X377910Y16750D01*
X377783Y17744D01*
X377572Y18724D01*
X377278Y19683D01*
X376904Y20613D01*
X376453Y21508D01*
X375927Y22362D01*
X375331Y23168D01*
X374669Y23921D01*
X373945Y24614D01*
X373165Y25244D01*
X372334Y25806D01*
X371459Y26294D01*
X370546Y26707D01*
X369600Y27041D01*
X368630Y27294D01*
X367642Y27463D01*
X366643Y27548D01*
X365640D01*
X364641Y27463D01*
X363653Y27294D01*
X362683Y27041D01*
X361738Y26707D01*
X360824Y26294D01*
X359949Y25806D01*
X359119Y25244D01*
X358338Y24614D01*
X357615Y23921D01*
X356952Y23168D01*
X356356Y22362D01*
X355831Y21508D01*
X355379Y20613D01*
X355005Y19683D01*
X354712Y18724D01*
X354501Y17744D01*
X354373Y16750D01*
X354331Y15748D01*
X354373Y14746D01*
X354501Y13752D01*
X354712Y12772D01*
X355005Y11813D01*
X355379Y10883D01*
X355831Y9988D01*
X356356Y9134D01*
X356952Y8328D01*
X357615Y7576D01*
X358338Y6882D01*
X359119Y6252D01*
X359949Y5691D01*
X360824Y5202D01*
X361738Y4789D01*
X362683Y4455D01*
X363653Y4202D01*
X364641Y4033D01*
X365640Y3948D01*
X366643D01*
X367642Y4033D01*
X368630Y4202D01*
X369600Y4455D01*
X370546Y4789D01*
X371459Y5202D01*
X372334Y5691D01*
X373165Y6252D01*
X373945Y6882D01*
X374669Y7576D01*
X375331Y8328D01*
X375927Y9134D01*
X376453Y9988D01*
X376904Y10883D01*
X377278Y11813D01*
X377572Y12772D01*
X377783Y13752D01*
X377910Y14746D01*
X377953Y15748D01*
M02*
