G04*
G04 #@! TF.GenerationSoftware,Altium Limited,Altium Designer,19.0.15 (446)*
G04*
G04 Layer_Color=65535*
%FSLAX25Y25*%
%MOIN*%
G70*
G01*
G75*
%ADD10C,0.01000*%
%ADD11C,0.01200*%
%ADD12C,0.00800*%
%ADD13C,0.01201*%
D10*
X244094Y31339D02*
Y36063D01*
Y31339D02*
X254921D01*
X244094Y43900D02*
Y48661D01*
X255906D01*
X254921Y31339D02*
X255906Y32323D01*
Y35079D01*
Y36260D01*
Y44000D02*
Y48661D01*
X320094Y101900D02*
Y106661D01*
X331906Y102000D02*
Y106661D01*
X320094D02*
X331906D01*
X320094Y89339D02*
Y94063D01*
Y89339D02*
X330921D01*
X331906Y93079D02*
Y94260D01*
X330921Y89339D02*
X331906Y90323D01*
Y93079D01*
X282095Y101900D02*
Y106661D01*
X293905Y102000D02*
Y106661D01*
X282095D02*
X293905D01*
X282095Y89339D02*
Y94063D01*
Y89339D02*
X292921D01*
X293905Y93079D02*
Y94260D01*
X292921Y89339D02*
X293905Y90323D01*
Y93079D01*
X65905Y89339D02*
Y94100D01*
X54094Y89339D02*
Y94000D01*
Y89339D02*
X65905D01*
Y101937D02*
Y106661D01*
X55079D02*
X65905D01*
X54094Y101740D02*
Y102921D01*
Y105677D02*
X55079Y106661D01*
X54094Y102921D02*
Y105677D01*
X103905Y89339D02*
Y94100D01*
X92094Y89339D02*
Y94000D01*
Y89339D02*
X103905D01*
Y101937D02*
Y106661D01*
X93079D02*
X103905D01*
X92094Y101740D02*
Y102921D01*
Y105677D02*
X93079Y106661D01*
X92094Y102921D02*
Y105677D01*
X244094Y101900D02*
Y106661D01*
X255906Y102000D02*
Y106661D01*
X244094D02*
X255906D01*
X244094Y89339D02*
Y94063D01*
Y89339D02*
X254921D01*
X255906Y93079D02*
Y94260D01*
X254921Y89339D02*
X255906Y90323D01*
Y93079D01*
X206095Y101900D02*
Y106661D01*
X217905Y102000D02*
Y106661D01*
X206095D02*
X217905D01*
X206095Y89339D02*
Y94063D01*
Y89339D02*
X216921D01*
X217905Y93079D02*
Y94260D01*
X216921Y89339D02*
X217905Y90323D01*
Y93079D01*
X168095Y101900D02*
Y106661D01*
X179905Y102000D02*
Y106661D01*
X168095D02*
X179905D01*
X168095Y89339D02*
Y94063D01*
Y89339D02*
X178921D01*
X179905Y93079D02*
Y94260D01*
X178921Y89339D02*
X179905Y90323D01*
Y93079D01*
X130095Y101900D02*
Y106661D01*
X141905Y102000D02*
Y106661D01*
X130095D02*
X141905D01*
X130095Y89339D02*
Y94063D01*
Y89339D02*
X140921D01*
X141905Y93079D02*
Y94260D01*
X140921Y89339D02*
X141905Y90323D01*
Y93079D01*
X320094Y43900D02*
Y48661D01*
X331906Y44000D02*
Y48661D01*
X320094D02*
X331906D01*
X320094Y31339D02*
Y36063D01*
Y31339D02*
X330921D01*
X331906Y35079D02*
Y36260D01*
X330921Y31339D02*
X331906Y32323D01*
Y35079D01*
X282095Y43900D02*
Y48661D01*
X293905Y44000D02*
Y48661D01*
X282095D02*
X293905D01*
X282095Y31339D02*
Y36063D01*
Y31339D02*
X292921D01*
X293905Y35079D02*
Y36260D01*
X292921Y31339D02*
X293905Y32323D01*
Y35079D01*
X65905Y31339D02*
Y36100D01*
X54094Y31339D02*
Y36000D01*
Y31339D02*
X65905D01*
Y43937D02*
Y48661D01*
X55079D02*
X65905D01*
X54094Y43740D02*
Y44921D01*
Y47677D02*
X55079Y48661D01*
X54094Y44921D02*
Y47677D01*
X103905Y31339D02*
Y36100D01*
X92094Y31339D02*
Y36000D01*
Y31339D02*
X103905D01*
Y43937D02*
Y48661D01*
X93079D02*
X103905D01*
X92094Y43740D02*
Y44921D01*
Y47677D02*
X93079Y48661D01*
X92094Y44921D02*
Y47677D01*
X206095Y43900D02*
Y48661D01*
X217905Y44000D02*
Y48661D01*
X206095D02*
X217905D01*
X206095Y31339D02*
Y36063D01*
Y31339D02*
X216921D01*
X217905Y35079D02*
Y36260D01*
X216921Y31339D02*
X217905Y32323D01*
Y35079D01*
X168095Y43900D02*
Y48661D01*
X179905Y44000D02*
Y48661D01*
X168095D02*
X179905D01*
X168095Y31339D02*
Y36063D01*
Y31339D02*
X178921D01*
X179905Y35079D02*
Y36260D01*
X178921Y31339D02*
X179905Y32323D01*
Y35079D01*
X130095Y43900D02*
Y48661D01*
X141905Y44000D02*
Y48661D01*
X130095D02*
X141905D01*
X130095Y31339D02*
Y36063D01*
Y31339D02*
X140921D01*
X141905Y35079D02*
Y36260D01*
X140921Y31339D02*
X141905Y32323D01*
Y35079D01*
D11*
X348486Y52276D02*
X355986D01*
X348486Y38276D02*
X355986D01*
X364486D02*
X371986D01*
X364486Y52276D02*
X371986D01*
X348486Y38276D02*
Y52276D01*
X371986Y38276D02*
Y52276D01*
Y55992D02*
Y69992D01*
X348486Y55992D02*
Y69992D01*
X364486D02*
X371986D01*
X364486Y55992D02*
X371986D01*
X348486D02*
X355986D01*
X348486Y69992D02*
X355986D01*
X371986Y73709D02*
Y87709D01*
X348486Y73709D02*
Y87709D01*
X364486D02*
X371986D01*
X364486Y73709D02*
X371986D01*
X348486D02*
X355986D01*
X348486Y87709D02*
X355986D01*
X371986Y91425D02*
Y105425D01*
X348486Y91425D02*
Y105425D01*
X364486D02*
X371986D01*
X364486Y91425D02*
X371986D01*
X348486D02*
X355986D01*
X348486Y105425D02*
X355986D01*
D12*
X53952Y54112D02*
Y50613D01*
Y51779D01*
X56284Y54112D01*
X54535Y52362D01*
X56284Y50613D01*
X26612Y4156D02*
Y7655D01*
X27778Y6489D01*
X28944Y7655D01*
Y4156D01*
X30111Y7072D02*
X30694Y7655D01*
X31860D01*
X32443Y7072D01*
Y6489D01*
X31860Y5906D01*
X31277D01*
X31860D01*
X32443Y5322D01*
Y4739D01*
X31860Y4156D01*
X30694D01*
X30111Y4739D01*
X329936Y87576D02*
Y84077D01*
Y85244D01*
X332269Y87576D01*
X330519Y85827D01*
X332269Y84077D01*
X253558Y87576D02*
Y84077D01*
Y85244D01*
X255891Y87576D01*
X254141Y85827D01*
X255891Y84077D01*
X38202Y84418D02*
Y80920D01*
X39951D01*
X40534Y81503D01*
Y82086D01*
X39951Y82669D01*
X38202D01*
X39951D01*
X40534Y83252D01*
Y83835D01*
X39951Y84418D01*
X38202D01*
X41700Y80920D02*
Y83252D01*
X42867Y84418D01*
X44033Y83252D01*
Y80920D01*
Y82669D01*
X41700D01*
X45199Y84418D02*
X47532D01*
X46366D01*
Y80920D01*
X48698Y82669D02*
X51031D01*
X49865Y83835D02*
Y81503D01*
X38202Y74801D02*
Y78300D01*
X40534Y74801D01*
Y78300D01*
X43450D02*
X42284D01*
X41700Y77717D01*
Y75384D01*
X42284Y74801D01*
X43450D01*
X44033Y75384D01*
Y77717D01*
X43450Y78300D01*
X45199Y74801D02*
Y78300D01*
X46366Y77134D01*
X47532Y78300D01*
Y74801D01*
X52197D02*
X53363D01*
X52780D01*
Y78300D01*
X52197Y77717D01*
X57445Y74801D02*
X55113D01*
X57445Y77134D01*
Y77717D01*
X56862Y78300D01*
X55696D01*
X55113Y77717D01*
X58612Y78300D02*
Y75967D01*
X59778Y74801D01*
X60944Y75967D01*
Y78300D01*
X62694Y74218D02*
X63277Y74801D01*
Y75384D01*
X62694D01*
Y74801D01*
X63277D01*
X62694Y74218D01*
X62111Y73635D01*
X69108Y74801D02*
Y78300D01*
X70275Y77134D01*
X71441Y78300D01*
Y74801D01*
X72607D02*
Y77134D01*
X73773Y78300D01*
X74940Y77134D01*
Y74801D01*
Y76550D01*
X72607D01*
X76106Y78300D02*
X78439Y74801D01*
Y78300D02*
X76106Y74801D01*
X83104D02*
X84270D01*
X83687D01*
Y78300D01*
X83104Y77717D01*
X87769Y74801D02*
Y78300D01*
X86019Y76550D01*
X88352D01*
X89518Y78300D02*
Y75967D01*
X90685Y74801D01*
X91851Y75967D01*
Y78300D01*
X26612Y134077D02*
Y137576D01*
X27778Y136410D01*
X28944Y137576D01*
Y134077D01*
X30111Y136993D02*
X30694Y137576D01*
X31860D01*
X32443Y136993D01*
Y136410D01*
X31860Y135827D01*
X31277D01*
X31860D01*
X32443Y135244D01*
Y134660D01*
X31860Y134077D01*
X30694D01*
X30111Y134660D01*
X38202Y66717D02*
Y63218D01*
X39951D01*
X40534Y63801D01*
Y64384D01*
X39951Y64967D01*
X38202D01*
X39951D01*
X40534Y65550D01*
Y66134D01*
X39951Y66717D01*
X38202D01*
X41700Y63218D02*
Y65550D01*
X42867Y66717D01*
X44033Y65550D01*
Y63218D01*
Y64967D01*
X41700D01*
X45199Y66717D02*
X47532D01*
X46366D01*
Y63218D01*
X48698Y64967D02*
X51031D01*
X40534Y60015D02*
X39951Y60598D01*
X38785D01*
X38202Y60015D01*
Y57682D01*
X38785Y57099D01*
X39951D01*
X40534Y57682D01*
Y58849D01*
X39368D01*
X41700Y57099D02*
Y60598D01*
X44033Y57099D01*
Y60598D01*
X45199D02*
Y57099D01*
X46949D01*
X47532Y57682D01*
Y60015D01*
X46949Y60598D01*
X45199D01*
X291747Y29309D02*
Y25810D01*
Y26976D01*
X294080Y29309D01*
X292330Y27559D01*
X294080Y25810D01*
X291353Y87576D02*
Y84077D01*
Y85244D01*
X293686Y87576D01*
X291936Y85827D01*
X293686Y84077D01*
X139385Y29309D02*
Y25810D01*
Y26976D01*
X141718Y29309D01*
X139968Y27559D01*
X141718Y25810D01*
X132229Y124521D02*
Y126854D01*
X131646Y127437D01*
X130480D01*
X129897Y126854D01*
Y124521D01*
X130480Y123938D01*
X131646D01*
X131063Y125104D02*
X132229Y123938D01*
X131646D02*
X132229Y124521D01*
X133396Y127437D02*
Y124521D01*
X133979Y123938D01*
X135145D01*
X135728Y124521D01*
Y127437D01*
X139227D02*
X136894D01*
Y123938D01*
X139227D01*
X136894Y125688D02*
X138061D01*
X142726Y127437D02*
X140393D01*
Y123938D01*
X142726D01*
X140393Y125688D02*
X141560D01*
X143892Y123938D02*
Y127437D01*
X146225Y123938D01*
Y127437D01*
X149724Y126854D02*
X149141Y127437D01*
X147974D01*
X147391Y126854D01*
Y126271D01*
X147974Y125688D01*
X149141D01*
X149724Y125104D01*
Y124521D01*
X149141Y123938D01*
X147974D01*
X147391Y124521D01*
X150890Y127437D02*
Y123938D01*
X153223D01*
X154389D02*
Y126271D01*
X155555Y127437D01*
X156721Y126271D01*
Y123938D01*
Y125688D01*
X154389D01*
X157888Y123938D02*
Y127437D01*
X160220Y123938D01*
Y127437D01*
X161387D02*
Y123938D01*
X163136D01*
X163719Y124521D01*
Y126854D01*
X163136Y127437D01*
X161387D01*
X168384D02*
Y124521D01*
X168967Y123938D01*
X170134D01*
X170717Y124521D01*
Y127437D01*
X171883Y123938D02*
Y127437D01*
X174216Y123938D01*
Y127437D01*
X175382D02*
X176548D01*
X175965D01*
Y123938D01*
X175382D01*
X176548D01*
X178298Y127437D02*
Y125104D01*
X179464Y123938D01*
X180630Y125104D01*
Y127437D01*
X184129D02*
X181797D01*
Y123938D01*
X184129D01*
X181797Y125688D02*
X182963D01*
X185295Y123938D02*
Y127437D01*
X187045D01*
X187628Y126854D01*
Y125688D01*
X187045Y125104D01*
X185295D01*
X186462D02*
X187628Y123938D01*
X191127Y126854D02*
X190544Y127437D01*
X189377D01*
X188794Y126854D01*
Y126271D01*
X189377Y125688D01*
X190544D01*
X191127Y125104D01*
Y124521D01*
X190544Y123938D01*
X189377D01*
X188794Y124521D01*
X192293Y127437D02*
X193459D01*
X192876D01*
Y123938D01*
X192293D01*
X193459D01*
X195209Y127437D02*
X197541D01*
X196375D01*
Y123938D01*
X198708Y127437D02*
Y126854D01*
X199874Y125688D01*
X201040Y126854D01*
Y127437D01*
X199874Y125688D02*
Y123938D01*
X207455Y127437D02*
X206289D01*
X205705Y126854D01*
Y124521D01*
X206289Y123938D01*
X207455D01*
X208038Y124521D01*
Y126854D01*
X207455Y127437D01*
X211537D02*
X209204D01*
Y125688D01*
X210371D01*
X209204D01*
Y123938D01*
X216202Y127437D02*
X218535D01*
X217368D01*
Y123938D01*
X222034Y127437D02*
X219701D01*
Y123938D01*
X222034D01*
X219701Y125688D02*
X220867D01*
X225533Y126854D02*
X224949Y127437D01*
X223783D01*
X223200Y126854D01*
Y124521D01*
X223783Y123938D01*
X224949D01*
X225533Y124521D01*
X226699Y127437D02*
Y123938D01*
Y125688D01*
X229031D01*
Y127437D01*
Y123938D01*
X230198D02*
Y127437D01*
X232530Y123938D01*
Y127437D01*
X235446D02*
X234280D01*
X233697Y126854D01*
Y124521D01*
X234280Y123938D01*
X235446D01*
X236029Y124521D01*
Y126854D01*
X235446Y127437D01*
X237195D02*
Y123938D01*
X239528D01*
X242444Y127437D02*
X241277D01*
X240694Y126854D01*
Y124521D01*
X241277Y123938D01*
X242444D01*
X243027Y124521D01*
Y126854D01*
X242444Y127437D01*
X246526Y126854D02*
X245942Y127437D01*
X244776D01*
X244193Y126854D01*
Y124521D01*
X244776Y123938D01*
X245942D01*
X246526Y124521D01*
Y125688D01*
X245359D01*
X247692Y127437D02*
Y126854D01*
X248858Y125688D01*
X250025Y126854D01*
Y127437D01*
X248858Y125688D02*
Y123938D01*
X349447Y4156D02*
Y7655D01*
X350613Y6489D01*
X351779Y7655D01*
Y4156D01*
X352945Y7072D02*
X353528Y7655D01*
X354695D01*
X355278Y7072D01*
Y6489D01*
X354695Y5906D01*
X354112D01*
X354695D01*
X355278Y5322D01*
Y4739D01*
X354695Y4156D01*
X353528D01*
X352945Y4739D01*
X91747Y111986D02*
Y108487D01*
Y109653D01*
X94080Y111986D01*
X92330Y110236D01*
X94080Y108487D01*
X177574Y87576D02*
Y84077D01*
Y85244D01*
X179906Y87576D01*
X178157Y85827D01*
X179906Y84077D01*
X92141Y54112D02*
Y50613D01*
Y51779D01*
X94473Y54112D01*
X92724Y52362D01*
X94473Y50613D01*
X139385Y87576D02*
Y84077D01*
Y85244D01*
X141718Y87576D01*
X139968Y85827D01*
X141718Y84077D01*
X215763Y87576D02*
Y84077D01*
Y85244D01*
X218095Y87576D01*
X216346Y85827D01*
X218095Y84077D01*
X173935Y8743D02*
X173352Y9327D01*
X172186D01*
X171602Y8743D01*
Y6411D01*
X172186Y5828D01*
X173352D01*
X173935Y6411D01*
X175101Y5828D02*
Y8160D01*
X176268Y9327D01*
X177434Y8160D01*
Y5828D01*
Y7577D01*
X175101D01*
X178600Y9327D02*
Y6411D01*
X179183Y5828D01*
X180350D01*
X180933Y6411D01*
Y9327D01*
X182099D02*
X184432D01*
X183265D01*
Y5828D01*
X185598Y9327D02*
X186764D01*
X186181D01*
Y5828D01*
X185598D01*
X186764D01*
X190263Y9327D02*
X189097D01*
X188514Y8743D01*
Y6411D01*
X189097Y5828D01*
X190263D01*
X190846Y6411D01*
Y8743D01*
X190263Y9327D01*
X192013Y5828D02*
Y9327D01*
X194345Y5828D01*
Y9327D01*
X195511Y8160D02*
X196095D01*
Y7577D01*
X195511D01*
Y8160D01*
Y6411D02*
X196095D01*
Y5828D01*
X195511D01*
Y6411D01*
X201926Y5828D02*
Y9327D01*
X203092Y8160D01*
X204259Y9327D01*
Y5828D01*
X205425D02*
Y8160D01*
X206591Y9327D01*
X207757Y8160D01*
Y5828D01*
Y7577D01*
X205425D01*
X208924Y9327D02*
X211256Y5828D01*
Y9327D02*
X208924Y5828D01*
X218254Y8743D02*
X217671Y9327D01*
X216505D01*
X215921Y8743D01*
Y6411D01*
X216505Y5828D01*
X217671D01*
X218254Y6411D01*
X221170Y9327D02*
X220004D01*
X219420Y8743D01*
Y6411D01*
X220004Y5828D01*
X221170D01*
X221753Y6411D01*
Y8743D01*
X221170Y9327D01*
X222919Y5828D02*
Y9327D01*
X225252Y5828D01*
Y9327D01*
X226418D02*
X228751D01*
X227584D01*
Y5828D01*
X229917Y9327D02*
X231083D01*
X230500D01*
Y5828D01*
X229917D01*
X231083D01*
X232833D02*
Y9327D01*
X235165Y5828D01*
Y9327D01*
X236332D02*
Y6411D01*
X236915Y5828D01*
X238081D01*
X238664Y6411D01*
Y9327D01*
X241580D02*
X240414D01*
X239830Y8743D01*
Y6411D01*
X240414Y5828D01*
X241580D01*
X242163Y6411D01*
Y8743D01*
X241580Y9327D01*
X243329D02*
Y6411D01*
X243912Y5828D01*
X245079D01*
X245662Y6411D01*
Y9327D01*
X249161Y8743D02*
X248578Y9327D01*
X247411D01*
X246828Y8743D01*
Y8160D01*
X247411Y7577D01*
X248578D01*
X249161Y6994D01*
Y6411D01*
X248578Y5828D01*
X247411D01*
X246828Y6411D01*
X253826Y5828D02*
Y9327D01*
X255575D01*
X256158Y8743D01*
Y7577D01*
X255575Y6994D01*
X253826D01*
X254992D02*
X256158Y5828D01*
X259657Y9327D02*
X257325D01*
Y5828D01*
X259657D01*
X257325Y7577D02*
X258491D01*
X260824Y9327D02*
Y6994D01*
X261990Y5828D01*
X263156Y6994D01*
Y9327D01*
X266655D02*
X264322D01*
Y5828D01*
X266655D01*
X264322Y7577D02*
X265489D01*
X267821Y5828D02*
Y9327D01*
X269571D01*
X270154Y8743D01*
Y7577D01*
X269571Y6994D01*
X267821D01*
X268988D02*
X270154Y5828D01*
X273653Y8743D02*
X273070Y9327D01*
X271903D01*
X271320Y8743D01*
Y8160D01*
X271903Y7577D01*
X273070D01*
X273653Y6994D01*
Y6411D01*
X273070Y5828D01*
X271903D01*
X271320Y6411D01*
X277152Y9327D02*
X274819D01*
Y5828D01*
X277152D01*
X274819Y7577D02*
X275985D01*
X281817Y9327D02*
Y6994D01*
X282983Y5828D01*
X284149Y6994D01*
Y9327D01*
X287065D02*
X285899D01*
X285316Y8743D01*
Y6411D01*
X285899Y5828D01*
X287065D01*
X287648Y6411D01*
Y8743D01*
X287065Y9327D01*
X288815D02*
Y5828D01*
X291147D01*
X292314Y9327D02*
X294646D01*
X293480D01*
Y5828D01*
X295812D02*
Y8160D01*
X296979Y9327D01*
X298145Y8160D01*
Y5828D01*
Y7577D01*
X295812D01*
X301644Y8743D02*
X301061Y9327D01*
X299894D01*
X299311Y8743D01*
Y6411D01*
X299894Y5828D01*
X301061D01*
X301644Y6411D01*
Y7577D01*
X300478D01*
X305143Y9327D02*
X302810D01*
Y5828D01*
X305143D01*
X302810Y7577D02*
X303976D01*
X309808Y5828D02*
X310974D01*
X310391D01*
Y9327D01*
X309808Y8743D01*
X315056Y5828D02*
X312723D01*
X315056Y8160D01*
Y8743D01*
X314473Y9327D01*
X313307D01*
X312723Y8743D01*
X316222Y9327D02*
Y6994D01*
X317389Y5828D01*
X318555Y6994D01*
Y9327D01*
X349447Y134077D02*
Y137576D01*
X350613Y136410D01*
X351779Y137576D01*
Y134077D01*
X352945Y136993D02*
X353528Y137576D01*
X354695D01*
X355278Y136993D01*
Y136410D01*
X354695Y135827D01*
X354112D01*
X354695D01*
X355278Y135244D01*
Y134660D01*
X354695Y134077D01*
X353528D01*
X352945Y134660D01*
X253558Y29309D02*
Y25810D01*
Y26976D01*
X255891Y29309D01*
X254141Y27559D01*
X255891Y25810D01*
X53952Y111986D02*
Y108487D01*
Y109653D01*
X56284Y111986D01*
X54535Y110236D01*
X56284Y108487D01*
X215763Y29309D02*
Y25810D01*
Y26976D01*
X218095Y29309D01*
X216346Y27559D01*
X218095Y25810D01*
X70871Y8743D02*
X73203Y6411D01*
X70871D02*
X73203Y8743D01*
X70871Y7577D02*
X73203D01*
X72037Y6411D02*
Y8743D01*
X74370D02*
X76702Y6411D01*
X74370D02*
X76702Y8743D01*
X74370Y7577D02*
X76702D01*
X75536Y6411D02*
Y8743D01*
X81367Y9327D02*
X82534D01*
X81951D01*
Y5828D01*
X81367D01*
X82534D01*
X86616Y8743D02*
X86033Y9327D01*
X84866D01*
X84283Y8743D01*
Y8160D01*
X84866Y7577D01*
X86033D01*
X86616Y6994D01*
Y6411D01*
X86033Y5828D01*
X84866D01*
X84283Y6411D01*
X89531Y9327D02*
X88365D01*
X87782Y8743D01*
Y6411D01*
X88365Y5828D01*
X89531D01*
X90115Y6411D01*
Y8743D01*
X89531Y9327D01*
X91281D02*
Y5828D01*
X93613D01*
X94780D02*
Y8160D01*
X95946Y9327D01*
X97112Y8160D01*
Y5828D01*
Y7577D01*
X94780D01*
X98279Y9327D02*
X100611D01*
X99445D01*
Y5828D01*
X104110Y9327D02*
X101778D01*
Y5828D01*
X104110D01*
X101778Y7577D02*
X102944D01*
X105276Y9327D02*
Y5828D01*
X107026D01*
X107609Y6411D01*
Y8743D01*
X107026Y9327D01*
X105276D01*
X112274Y8743D02*
X114607Y6411D01*
X112274D02*
X114607Y8743D01*
X112274Y7577D02*
X114607D01*
X113440Y6411D02*
Y8743D01*
X115773D02*
X118105Y6411D01*
X115773D02*
X118105Y8743D01*
X115773Y7577D02*
X118105D01*
X116939Y6411D02*
Y8743D01*
X177574Y29309D02*
Y25810D01*
Y26976D01*
X179906Y29309D01*
X178157Y27559D01*
X179906Y25810D01*
X329542Y29309D02*
Y25810D01*
Y26976D01*
X331875Y29309D01*
X330125Y27559D01*
X331875Y25810D01*
D13*
X157508Y131955D02*
Y135287D01*
X156675Y136120D01*
X155009D01*
X154176Y135287D01*
Y131955D01*
X155009Y131122D01*
X156675D01*
X155842Y132788D02*
X157508Y131122D01*
X156675D02*
X157508Y131955D01*
X162507Y136120D02*
X159174D01*
Y131122D01*
X162507D01*
X159174Y133621D02*
X160840D01*
X164173Y136120D02*
Y132788D01*
X165839Y131122D01*
X167505Y132788D01*
Y136120D01*
X172503Y131122D02*
X169171D01*
X172503Y134454D01*
Y135287D01*
X171670Y136120D01*
X170004D01*
X169171Y135287D01*
X179168Y136120D02*
Y131122D01*
X181667D01*
X182500Y131955D01*
Y132788D01*
X181667Y133621D01*
X179168D01*
X181667D01*
X182500Y134454D01*
Y135287D01*
X181667Y136120D01*
X179168D01*
X184166Y131122D02*
Y136120D01*
X186665D01*
X187498Y135287D01*
Y133621D01*
X186665Y132788D01*
X184166D01*
X185832D02*
X187498Y131122D01*
X189165D02*
Y134454D01*
X190831Y136120D01*
X192497Y134454D01*
Y131122D01*
Y133621D01*
X189165D01*
X194163Y136120D02*
Y131122D01*
Y132788D01*
X197495Y136120D01*
X194996Y133621D01*
X197495Y131122D01*
X202494Y136120D02*
X199161D01*
Y131122D01*
X202494D01*
X199161Y133621D02*
X200828D01*
X209158Y136120D02*
Y131122D01*
X212490D01*
X214157Y136120D02*
X215823D01*
X214990D01*
Y131122D01*
X214157D01*
X215823D01*
X221654Y135287D02*
X220821Y136120D01*
X219155D01*
X218322Y135287D01*
Y131955D01*
X219155Y131122D01*
X220821D01*
X221654Y131955D01*
Y133621D01*
X219988D01*
X223320Y136120D02*
Y131122D01*
Y133621D01*
X226652D01*
Y136120D01*
Y131122D01*
X228319Y136120D02*
X231651D01*
X229985D01*
Y131122D01*
M02*
