G04*
G04 #@! TF.GenerationSoftware,Altium Limited,Altium Designer,20.1.14 (287)*
G04*
G04 Layer_Physical_Order=2*
G04 Layer_Color=16711680*
%FSLAX25Y25*%
%MOIN*%
G70*
G04*
G04 #@! TF.SameCoordinates,7963FD37-A3EF-41C6-90A3-C7C30B782ED2*
G04*
G04*
G04 #@! TF.FilePolarity,Positive*
G04*
G01*
G75*
%ADD11C,0.01000*%
%ADD33C,0.03937*%
%ADD36C,0.05000*%
%ADD38C,0.02000*%
%ADD39C,0.19685*%
%ADD40C,0.02500*%
%ADD41C,0.03150*%
%ADD42C,0.05000*%
G36*
X457156Y329500D02*
X456128Y329399D01*
X454808Y328998D01*
X453592Y328348D01*
X452526Y327474D01*
X451652Y326408D01*
X451002Y325192D01*
X450601Y323872D01*
X450466Y322500D01*
X450601Y321128D01*
X451002Y319808D01*
X451652Y318592D01*
X452526Y317526D01*
X453592Y316652D01*
X454808Y316002D01*
X456128Y315601D01*
X457500Y315466D01*
X458872Y315601D01*
X460192Y316002D01*
X461408Y316652D01*
X462474Y317526D01*
X463348Y318592D01*
X463998Y319808D01*
X464399Y321128D01*
X464500Y322156D01*
X465000Y322131D01*
Y140000D01*
X135000D01*
Y330000D01*
X457131D01*
X457156Y329500D01*
D02*
G37*
%LPC*%
G36*
X300500Y328947D02*
Y318610D01*
X310837D01*
X310742Y319812D01*
X310344Y321471D01*
X309691Y323048D01*
X308799Y324503D01*
X307691Y325801D01*
X306393Y326909D01*
X304938Y327801D01*
X303361Y328454D01*
X301701Y328852D01*
X300500Y328947D01*
D02*
G37*
G36*
X299500D02*
X298299Y328852D01*
X296639Y328454D01*
X295062Y327801D01*
X293607Y326909D01*
X292309Y325801D01*
X291201Y324503D01*
X290309Y323048D01*
X289656Y321471D01*
X289258Y319812D01*
X289163Y318610D01*
X299500D01*
Y328947D01*
D02*
G37*
G36*
X310837Y317610D02*
X300500D01*
Y307274D01*
X301701Y307368D01*
X303361Y307767D01*
X304938Y308420D01*
X306393Y309311D01*
X307691Y310420D01*
X308799Y311718D01*
X309691Y313173D01*
X310344Y314749D01*
X310742Y316409D01*
X310837Y317610D01*
D02*
G37*
G36*
X299500D02*
X289163D01*
X289258Y316409D01*
X289656Y314749D01*
X290309Y313173D01*
X291201Y311718D01*
X292309Y310420D01*
X293607Y309311D01*
X295062Y308420D01*
X296639Y307767D01*
X298299Y307368D01*
X299500Y307274D01*
Y317610D01*
D02*
G37*
G36*
X450500Y306928D02*
Y304500D01*
X452928D01*
X452892Y304775D01*
X452593Y305497D01*
X452117Y306117D01*
X451497Y306593D01*
X450775Y306892D01*
X450500Y306928D01*
D02*
G37*
G36*
X449500D02*
X449225Y306892D01*
X448503Y306593D01*
X447883Y306117D01*
X447407Y305497D01*
X447108Y304775D01*
X447072Y304500D01*
X449500D01*
Y306928D01*
D02*
G37*
G36*
X350500D02*
Y304500D01*
X352928D01*
X352892Y304775D01*
X352593Y305497D01*
X352117Y306117D01*
X351497Y306593D01*
X350775Y306892D01*
X350500Y306928D01*
D02*
G37*
G36*
X349500D02*
X349225Y306892D01*
X348503Y306593D01*
X347883Y306117D01*
X347407Y305497D01*
X347108Y304775D01*
X347072Y304500D01*
X349500D01*
Y306928D01*
D02*
G37*
G36*
X250500D02*
Y304500D01*
X252928D01*
X252892Y304775D01*
X252593Y305497D01*
X252117Y306117D01*
X251497Y306593D01*
X250775Y306892D01*
X250500Y306928D01*
D02*
G37*
G36*
X249500D02*
X249225Y306892D01*
X248503Y306593D01*
X247883Y306117D01*
X247407Y305497D01*
X247108Y304775D01*
X247072Y304500D01*
X249500D01*
Y306928D01*
D02*
G37*
G36*
X150500D02*
Y304500D01*
X152928D01*
X152892Y304775D01*
X152593Y305497D01*
X152117Y306117D01*
X151497Y306593D01*
X150775Y306892D01*
X150500Y306928D01*
D02*
G37*
G36*
X149500D02*
X149225Y306892D01*
X148503Y306593D01*
X147883Y306117D01*
X147407Y305497D01*
X147108Y304775D01*
X147072Y304500D01*
X149500D01*
Y306928D01*
D02*
G37*
G36*
X452928Y303500D02*
X450500D01*
Y301072D01*
X450775Y301108D01*
X451497Y301407D01*
X452117Y301883D01*
X452593Y302503D01*
X452892Y303225D01*
X452928Y303500D01*
D02*
G37*
G36*
X449500D02*
X447072D01*
X447108Y303225D01*
X447407Y302503D01*
X447883Y301883D01*
X448503Y301407D01*
X449225Y301108D01*
X449500Y301072D01*
Y303500D01*
D02*
G37*
G36*
X352928D02*
X350500D01*
Y301072D01*
X350775Y301108D01*
X351497Y301407D01*
X352117Y301883D01*
X352593Y302503D01*
X352892Y303225D01*
X352928Y303500D01*
D02*
G37*
G36*
X349500D02*
X347072D01*
X347108Y303225D01*
X347407Y302503D01*
X347883Y301883D01*
X348503Y301407D01*
X349225Y301108D01*
X349500Y301072D01*
Y303500D01*
D02*
G37*
G36*
X252928D02*
X250500D01*
Y301072D01*
X250775Y301108D01*
X251497Y301407D01*
X252117Y301883D01*
X252593Y302503D01*
X252892Y303225D01*
X252928Y303500D01*
D02*
G37*
G36*
X249500D02*
X247072D01*
X247108Y303225D01*
X247407Y302503D01*
X247883Y301883D01*
X248503Y301407D01*
X249225Y301108D01*
X249500Y301072D01*
Y303500D01*
D02*
G37*
G36*
X152928D02*
X150500D01*
Y301072D01*
X150775Y301108D01*
X151497Y301407D01*
X152117Y301883D01*
X152593Y302503D01*
X152892Y303225D01*
X152928Y303500D01*
D02*
G37*
G36*
X149500D02*
X147072D01*
X147108Y303225D01*
X147407Y302503D01*
X147883Y301883D01*
X148503Y301407D01*
X149225Y301108D01*
X149500Y301072D01*
Y303500D01*
D02*
G37*
G36*
X450500Y298928D02*
Y296500D01*
X452928D01*
X452892Y296775D01*
X452593Y297497D01*
X452117Y298117D01*
X451497Y298593D01*
X450775Y298892D01*
X450500Y298928D01*
D02*
G37*
G36*
X449500D02*
X449225Y298892D01*
X448503Y298593D01*
X447883Y298117D01*
X447407Y297497D01*
X447108Y296775D01*
X447072Y296500D01*
X449500D01*
Y298928D01*
D02*
G37*
G36*
X350500D02*
Y296500D01*
X352928D01*
X352892Y296775D01*
X352593Y297497D01*
X352117Y298117D01*
X351497Y298593D01*
X350775Y298892D01*
X350500Y298928D01*
D02*
G37*
G36*
X349500D02*
X349225Y298892D01*
X348503Y298593D01*
X347883Y298117D01*
X347407Y297497D01*
X347108Y296775D01*
X347072Y296500D01*
X349500D01*
Y298928D01*
D02*
G37*
G36*
X250500D02*
Y296500D01*
X252928D01*
X252892Y296775D01*
X252593Y297497D01*
X252117Y298117D01*
X251497Y298593D01*
X250775Y298892D01*
X250500Y298928D01*
D02*
G37*
G36*
X249500D02*
X249225Y298892D01*
X248503Y298593D01*
X247883Y298117D01*
X247407Y297497D01*
X247108Y296775D01*
X247072Y296500D01*
X249500D01*
Y298928D01*
D02*
G37*
G36*
X150500D02*
Y296500D01*
X152928D01*
X152892Y296775D01*
X152593Y297497D01*
X152117Y298117D01*
X151497Y298593D01*
X150775Y298892D01*
X150500Y298928D01*
D02*
G37*
G36*
X149500D02*
X149225Y298892D01*
X148503Y298593D01*
X147883Y298117D01*
X147407Y297497D01*
X147108Y296775D01*
X147072Y296500D01*
X149500D01*
Y298928D01*
D02*
G37*
G36*
X452928Y295500D02*
X450500D01*
Y293072D01*
X450775Y293108D01*
X451497Y293407D01*
X452117Y293883D01*
X452593Y294503D01*
X452892Y295225D01*
X452928Y295500D01*
D02*
G37*
G36*
X449500D02*
X447072D01*
X447108Y295225D01*
X447407Y294503D01*
X447883Y293883D01*
X448503Y293407D01*
X449225Y293108D01*
X449500Y293072D01*
Y295500D01*
D02*
G37*
G36*
X352928D02*
X350500D01*
Y293072D01*
X350775Y293108D01*
X351497Y293407D01*
X352117Y293883D01*
X352593Y294503D01*
X352892Y295225D01*
X352928Y295500D01*
D02*
G37*
G36*
X349500D02*
X347072D01*
X347108Y295225D01*
X347407Y294503D01*
X347883Y293883D01*
X348503Y293407D01*
X349225Y293108D01*
X349500Y293072D01*
Y295500D01*
D02*
G37*
G36*
X252928D02*
X250500D01*
Y293072D01*
X250775Y293108D01*
X251497Y293407D01*
X252117Y293883D01*
X252593Y294503D01*
X252892Y295225D01*
X252928Y295500D01*
D02*
G37*
G36*
X249500D02*
X247072D01*
X247108Y295225D01*
X247407Y294503D01*
X247883Y293883D01*
X248503Y293407D01*
X249225Y293108D01*
X249500Y293072D01*
Y295500D01*
D02*
G37*
G36*
X152928D02*
X150500D01*
Y293072D01*
X150775Y293108D01*
X151497Y293407D01*
X152117Y293883D01*
X152593Y294503D01*
X152892Y295225D01*
X152928Y295500D01*
D02*
G37*
G36*
X149500D02*
X147072D01*
X147108Y295225D01*
X147407Y294503D01*
X147883Y293883D01*
X148503Y293407D01*
X149225Y293108D01*
X149500Y293072D01*
Y295500D01*
D02*
G37*
G36*
X398425Y309710D02*
X396660Y309571D01*
X394938Y309158D01*
X393302Y308480D01*
X391792Y307555D01*
X390446Y306405D01*
X389296Y305058D01*
X388370Y303548D01*
X387693Y301912D01*
X387279Y300190D01*
X387140Y298425D01*
X387279Y296660D01*
X387693Y294938D01*
X388370Y293302D01*
X389296Y291792D01*
X390446Y290446D01*
X391792Y289296D01*
X393302Y288370D01*
X394938Y287693D01*
X396660Y287279D01*
X398425Y287140D01*
X400190Y287279D01*
X401912Y287693D01*
X403548Y288370D01*
X405058Y289296D01*
X406405Y290446D01*
X407555Y291792D01*
X408480Y293302D01*
X409158Y294938D01*
X409571Y296660D01*
X409710Y298425D01*
X409571Y300190D01*
X409158Y301912D01*
X408480Y303548D01*
X407555Y305058D01*
X406405Y306405D01*
X405058Y307555D01*
X403548Y308480D01*
X401912Y309158D01*
X400190Y309571D01*
X398425Y309710D01*
D02*
G37*
G36*
X201575D02*
X199810Y309571D01*
X198088Y309158D01*
X196452Y308480D01*
X194942Y307555D01*
X193595Y306405D01*
X192445Y305058D01*
X191520Y303548D01*
X190842Y301912D01*
X190429Y300190D01*
X190290Y298425D01*
X190429Y296660D01*
X190842Y294938D01*
X191520Y293302D01*
X192445Y291792D01*
X193595Y290446D01*
X194942Y289296D01*
X196452Y288370D01*
X198088Y287693D01*
X199810Y287279D01*
X201575Y287140D01*
X203340Y287279D01*
X205062Y287693D01*
X206698Y288370D01*
X208208Y289296D01*
X209554Y290446D01*
X210704Y291792D01*
X211630Y293302D01*
X212307Y294938D01*
X212721Y296660D01*
X212860Y298425D01*
X212721Y300190D01*
X212307Y301912D01*
X211630Y303548D01*
X210704Y305058D01*
X209554Y306405D01*
X208208Y307555D01*
X206698Y308480D01*
X205062Y309158D01*
X203340Y309571D01*
X201575Y309710D01*
D02*
G37*
G36*
X398700Y272031D02*
Y270000D01*
X400731D01*
X400708Y270172D01*
X400449Y270798D01*
X400036Y271336D01*
X399499Y271749D01*
X398872Y272008D01*
X398700Y272031D01*
D02*
G37*
G36*
X397700D02*
X397528Y272008D01*
X396901Y271749D01*
X396364Y271336D01*
X395951Y270798D01*
X395691Y270172D01*
X395669Y270000D01*
X397700D01*
Y272031D01*
D02*
G37*
G36*
X388700D02*
Y270000D01*
X390731D01*
X390708Y270172D01*
X390449Y270798D01*
X390036Y271336D01*
X389498Y271749D01*
X388872Y272008D01*
X388700Y272031D01*
D02*
G37*
G36*
X387700D02*
X387528Y272008D01*
X386901Y271749D01*
X386364Y271336D01*
X385951Y270798D01*
X385691Y270172D01*
X385669Y270000D01*
X387700D01*
Y272031D01*
D02*
G37*
G36*
X378700D02*
Y270000D01*
X380731D01*
X380709Y270172D01*
X380449Y270798D01*
X380036Y271336D01*
X379499Y271749D01*
X378872Y272008D01*
X378700Y272031D01*
D02*
G37*
G36*
X377700D02*
X377528Y272008D01*
X376902Y271749D01*
X376364Y271336D01*
X375951Y270798D01*
X375692Y270172D01*
X375669Y270000D01*
X377700D01*
Y272031D01*
D02*
G37*
G36*
X198100D02*
Y270000D01*
X200131D01*
X200109Y270172D01*
X199849Y270798D01*
X199436Y271336D01*
X198898Y271749D01*
X198272Y272008D01*
X198100Y272031D01*
D02*
G37*
G36*
X197100D02*
X196928Y272008D01*
X196301Y271749D01*
X195764Y271336D01*
X195351Y270798D01*
X195091Y270172D01*
X195069Y270000D01*
X197100D01*
Y272031D01*
D02*
G37*
G36*
X188100D02*
Y270000D01*
X190131D01*
X190109Y270172D01*
X189849Y270798D01*
X189436Y271336D01*
X188899Y271749D01*
X188272Y272008D01*
X188100Y272031D01*
D02*
G37*
G36*
X187100D02*
X186928Y272008D01*
X186302Y271749D01*
X185764Y271336D01*
X185351Y270798D01*
X185091Y270172D01*
X185069Y270000D01*
X187100D01*
Y272031D01*
D02*
G37*
G36*
X178100D02*
Y270000D01*
X180131D01*
X180108Y270172D01*
X179849Y270798D01*
X179436Y271336D01*
X178899Y271749D01*
X178272Y272008D01*
X178100Y272031D01*
D02*
G37*
G36*
X177100D02*
X176928Y272008D01*
X176302Y271749D01*
X175764Y271336D01*
X175351Y270798D01*
X175092Y270172D01*
X175069Y270000D01*
X177100D01*
Y272031D01*
D02*
G37*
G36*
X400731Y269000D02*
X398700D01*
Y266969D01*
X398872Y266991D01*
X399499Y267251D01*
X400036Y267664D01*
X400449Y268201D01*
X400708Y268828D01*
X400731Y269000D01*
D02*
G37*
G36*
X397700D02*
X395669D01*
X395691Y268828D01*
X395951Y268201D01*
X396364Y267664D01*
X396901Y267251D01*
X397528Y266991D01*
X397700Y266969D01*
Y269000D01*
D02*
G37*
G36*
X390731D02*
X388700D01*
Y266969D01*
X388872Y266991D01*
X389498Y267251D01*
X390036Y267664D01*
X390449Y268201D01*
X390708Y268828D01*
X390731Y269000D01*
D02*
G37*
G36*
X387700D02*
X385669D01*
X385691Y268828D01*
X385951Y268201D01*
X386364Y267664D01*
X386901Y267251D01*
X387528Y266991D01*
X387700Y266969D01*
Y269000D01*
D02*
G37*
G36*
X380731D02*
X378700D01*
Y266969D01*
X378872Y266991D01*
X379499Y267251D01*
X380036Y267664D01*
X380449Y268201D01*
X380709Y268828D01*
X380731Y269000D01*
D02*
G37*
G36*
X377700D02*
X375669D01*
X375692Y268828D01*
X375951Y268201D01*
X376364Y267664D01*
X376902Y267251D01*
X377528Y266991D01*
X377700Y266969D01*
Y269000D01*
D02*
G37*
G36*
X200131D02*
X198100D01*
Y266969D01*
X198272Y266991D01*
X198898Y267251D01*
X199436Y267664D01*
X199849Y268201D01*
X200109Y268828D01*
X200131Y269000D01*
D02*
G37*
G36*
X197100D02*
X195069D01*
X195091Y268828D01*
X195351Y268201D01*
X195764Y267664D01*
X196301Y267251D01*
X196928Y266991D01*
X197100Y266969D01*
Y269000D01*
D02*
G37*
G36*
X190131D02*
X188100D01*
Y266969D01*
X188272Y266991D01*
X188899Y267251D01*
X189436Y267664D01*
X189849Y268201D01*
X190109Y268828D01*
X190131Y269000D01*
D02*
G37*
G36*
X187100D02*
X185069D01*
X185091Y268828D01*
X185351Y268201D01*
X185764Y267664D01*
X186302Y267251D01*
X186928Y266991D01*
X187100Y266969D01*
Y269000D01*
D02*
G37*
G36*
X180131D02*
X178100D01*
Y266969D01*
X178272Y266991D01*
X178899Y267251D01*
X179436Y267664D01*
X179849Y268201D01*
X180108Y268828D01*
X180131Y269000D01*
D02*
G37*
G36*
X177100D02*
X175069D01*
X175092Y268828D01*
X175351Y268201D01*
X175764Y267664D01*
X176302Y267251D01*
X176928Y266991D01*
X177100Y266969D01*
Y269000D01*
D02*
G37*
G36*
X185400Y235031D02*
Y233000D01*
X187431D01*
X187408Y233172D01*
X187149Y233799D01*
X186736Y234336D01*
X186198Y234749D01*
X185572Y235009D01*
X185400Y235031D01*
D02*
G37*
G36*
X184400D02*
X184228Y235009D01*
X183601Y234749D01*
X183064Y234336D01*
X182651Y233799D01*
X182392Y233172D01*
X182369Y233000D01*
X184400D01*
Y235031D01*
D02*
G37*
G36*
X187431Y232000D02*
X185400D01*
Y229969D01*
X185572Y229992D01*
X186198Y230251D01*
X186736Y230664D01*
X187149Y231202D01*
X187408Y231828D01*
X187431Y232000D01*
D02*
G37*
G36*
X184400D02*
X182369D01*
X182392Y231828D01*
X182651Y231202D01*
X183064Y230664D01*
X183601Y230251D01*
X184228Y229992D01*
X184400Y229969D01*
Y232000D01*
D02*
G37*
G36*
X185400Y227531D02*
Y225500D01*
X187431D01*
X187408Y225672D01*
X187149Y226298D01*
X186736Y226836D01*
X186198Y227249D01*
X185572Y227508D01*
X185400Y227531D01*
D02*
G37*
G36*
X184400D02*
X184228Y227508D01*
X183601Y227249D01*
X183064Y226836D01*
X182651Y226298D01*
X182392Y225672D01*
X182369Y225500D01*
X184400D01*
Y227531D01*
D02*
G37*
G36*
X187431Y224500D02*
X185400D01*
Y222469D01*
X185572Y222492D01*
X186198Y222751D01*
X186736Y223164D01*
X187149Y223702D01*
X187408Y224328D01*
X187431Y224500D01*
D02*
G37*
G36*
X184400D02*
X182369D01*
X182392Y224328D01*
X182651Y223702D01*
X183064Y223164D01*
X183601Y222751D01*
X184228Y222492D01*
X184400Y222469D01*
Y224500D01*
D02*
G37*
G36*
X317100Y255630D02*
X316186Y255510D01*
X315335Y255157D01*
X314604Y254596D01*
X282504Y222496D01*
X281943Y221765D01*
X281590Y220914D01*
X281470Y220000D01*
X281590Y219086D01*
X281943Y218235D01*
X282504Y217504D01*
X283235Y216943D01*
X284086Y216590D01*
X285000Y216470D01*
X285914Y216590D01*
X286765Y216943D01*
X287496Y217504D01*
X318562Y248570D01*
X370500D01*
X371414Y248690D01*
X372265Y249043D01*
X372996Y249604D01*
X373557Y250335D01*
X373910Y251186D01*
X374030Y252100D01*
X373910Y253014D01*
X373557Y253865D01*
X372996Y254596D01*
X372265Y255157D01*
X371414Y255510D01*
X370500Y255630D01*
X317100D01*
X317100Y255630D01*
D02*
G37*
G36*
X350500Y206928D02*
Y204500D01*
X352928D01*
X352892Y204775D01*
X352593Y205497D01*
X352117Y206117D01*
X351497Y206593D01*
X350775Y206892D01*
X350500Y206928D01*
D02*
G37*
G36*
X450500D02*
Y204500D01*
X452928D01*
X452892Y204775D01*
X452593Y205497D01*
X452117Y206117D01*
X451497Y206593D01*
X450775Y206892D01*
X450500Y206928D01*
D02*
G37*
G36*
X250500D02*
Y204500D01*
X252928D01*
X252892Y204775D01*
X252593Y205497D01*
X252117Y206117D01*
X251497Y206593D01*
X250775Y206892D01*
X250500Y206928D01*
D02*
G37*
G36*
X150500D02*
Y204500D01*
X152928D01*
X152892Y204775D01*
X152593Y205497D01*
X152117Y206117D01*
X151497Y206593D01*
X150775Y206892D01*
X150500Y206928D01*
D02*
G37*
G36*
X349500D02*
X349225Y206892D01*
X348503Y206593D01*
X347883Y206117D01*
X347407Y205497D01*
X347108Y204775D01*
X347072Y204500D01*
X349500D01*
Y206928D01*
D02*
G37*
G36*
X249500D02*
X249225Y206892D01*
X248503Y206593D01*
X247883Y206117D01*
X247407Y205497D01*
X247108Y204775D01*
X247072Y204500D01*
X249500D01*
Y206928D01*
D02*
G37*
G36*
X449500D02*
X449225Y206892D01*
X448503Y206593D01*
X447883Y206117D01*
X447407Y205497D01*
X447108Y204775D01*
X447072Y204500D01*
X449500D01*
Y206928D01*
D02*
G37*
G36*
X149500D02*
X149225Y206892D01*
X148503Y206593D01*
X147883Y206117D01*
X147407Y205497D01*
X147108Y204775D01*
X147072Y204500D01*
X149500D01*
Y206928D01*
D02*
G37*
G36*
X152928Y203500D02*
X150500D01*
Y201072D01*
X150775Y201108D01*
X151497Y201407D01*
X152117Y201883D01*
X152593Y202503D01*
X152892Y203225D01*
X152928Y203500D01*
D02*
G37*
G36*
X452928D02*
X450500D01*
Y201072D01*
X450775Y201108D01*
X451497Y201407D01*
X452117Y201883D01*
X452593Y202503D01*
X452892Y203225D01*
X452928Y203500D01*
D02*
G37*
G36*
X352928D02*
X350500D01*
Y201072D01*
X350775Y201108D01*
X351497Y201407D01*
X352117Y201883D01*
X352593Y202503D01*
X352892Y203225D01*
X352928Y203500D01*
D02*
G37*
G36*
X252928D02*
X250500D01*
Y201072D01*
X250775Y201108D01*
X251497Y201407D01*
X252117Y201883D01*
X252593Y202503D01*
X252892Y203225D01*
X252928Y203500D01*
D02*
G37*
G36*
X449500D02*
X447072D01*
X447108Y203225D01*
X447407Y202503D01*
X447883Y201883D01*
X448503Y201407D01*
X449225Y201108D01*
X449500Y201072D01*
Y203500D01*
D02*
G37*
G36*
X349500D02*
X347072D01*
X347108Y203225D01*
X347407Y202503D01*
X347883Y201883D01*
X348503Y201407D01*
X349225Y201108D01*
X349500Y201072D01*
Y203500D01*
D02*
G37*
G36*
X249500D02*
X247072D01*
X247108Y203225D01*
X247407Y202503D01*
X247883Y201883D01*
X248503Y201407D01*
X249225Y201108D01*
X249500Y201072D01*
Y203500D01*
D02*
G37*
G36*
X149500D02*
X147072D01*
X147108Y203225D01*
X147407Y202503D01*
X147883Y201883D01*
X148503Y201407D01*
X149225Y201108D01*
X149500Y201072D01*
Y203500D01*
D02*
G37*
G36*
X350500Y198928D02*
Y196500D01*
X352928D01*
X352892Y196775D01*
X352593Y197497D01*
X352117Y198117D01*
X351497Y198593D01*
X350775Y198892D01*
X350500Y198928D01*
D02*
G37*
G36*
X450500D02*
Y196500D01*
X452928D01*
X452892Y196775D01*
X452593Y197497D01*
X452117Y198117D01*
X451497Y198593D01*
X450775Y198892D01*
X450500Y198928D01*
D02*
G37*
G36*
X250500D02*
Y196500D01*
X252928D01*
X252892Y196775D01*
X252593Y197497D01*
X252117Y198117D01*
X251497Y198593D01*
X250775Y198892D01*
X250500Y198928D01*
D02*
G37*
G36*
X150500D02*
Y196500D01*
X152928D01*
X152892Y196775D01*
X152593Y197497D01*
X152117Y198117D01*
X151497Y198593D01*
X150775Y198892D01*
X150500Y198928D01*
D02*
G37*
G36*
X349500D02*
X349225Y198892D01*
X348503Y198593D01*
X347883Y198117D01*
X347407Y197497D01*
X347108Y196775D01*
X347072Y196500D01*
X349500D01*
Y198928D01*
D02*
G37*
G36*
X249500D02*
X249225Y198892D01*
X248503Y198593D01*
X247883Y198117D01*
X247407Y197497D01*
X247108Y196775D01*
X247072Y196500D01*
X249500D01*
Y198928D01*
D02*
G37*
G36*
X449500D02*
X449225Y198892D01*
X448503Y198593D01*
X447883Y198117D01*
X447407Y197497D01*
X447108Y196775D01*
X447072Y196500D01*
X449500D01*
Y198928D01*
D02*
G37*
G36*
X149500D02*
X149225Y198892D01*
X148503Y198593D01*
X147883Y198117D01*
X147407Y197497D01*
X147108Y196775D01*
X147072Y196500D01*
X149500D01*
Y198928D01*
D02*
G37*
G36*
X452928Y195500D02*
X450500D01*
Y193072D01*
X450775Y193108D01*
X451497Y193407D01*
X452117Y193883D01*
X452593Y194503D01*
X452892Y195225D01*
X452928Y195500D01*
D02*
G37*
G36*
X352928D02*
X350500D01*
Y193072D01*
X350775Y193108D01*
X351497Y193407D01*
X352117Y193883D01*
X352593Y194503D01*
X352892Y195225D01*
X352928Y195500D01*
D02*
G37*
G36*
X252928D02*
X250500D01*
Y193072D01*
X250775Y193108D01*
X251497Y193407D01*
X252117Y193883D01*
X252593Y194503D01*
X252892Y195225D01*
X252928Y195500D01*
D02*
G37*
G36*
X152928D02*
X150500D01*
Y193072D01*
X150775Y193108D01*
X151497Y193407D01*
X152117Y193883D01*
X152593Y194503D01*
X152892Y195225D01*
X152928Y195500D01*
D02*
G37*
G36*
X149500D02*
X147072D01*
X147108Y195225D01*
X147407Y194503D01*
X147883Y193883D01*
X148503Y193407D01*
X149225Y193108D01*
X149500Y193072D01*
Y195500D01*
D02*
G37*
G36*
X449500D02*
X447072D01*
X447108Y195225D01*
X447407Y194503D01*
X447883Y193883D01*
X448503Y193407D01*
X449225Y193108D01*
X449500Y193072D01*
Y195500D01*
D02*
G37*
G36*
X349500D02*
X347072D01*
X347108Y195225D01*
X347407Y194503D01*
X347883Y193883D01*
X348503Y193407D01*
X349225Y193108D01*
X349500Y193072D01*
Y195500D01*
D02*
G37*
G36*
X249500D02*
X247072D01*
X247108Y195225D01*
X247407Y194503D01*
X247883Y193883D01*
X248503Y193407D01*
X249225Y193108D01*
X249500Y193072D01*
Y195500D01*
D02*
G37*
G36*
X300000Y211285D02*
X298235Y211146D01*
X296513Y210733D01*
X294877Y210055D01*
X293367Y209130D01*
X292020Y207980D01*
X290870Y206633D01*
X289945Y205123D01*
X289267Y203487D01*
X288854Y201765D01*
X288715Y200000D01*
X288854Y198235D01*
X289267Y196513D01*
X289945Y194877D01*
X290870Y193367D01*
X292020Y192020D01*
X293367Y190870D01*
X294877Y189945D01*
X296513Y189268D01*
X298235Y188854D01*
X300000Y188715D01*
X301765Y188854D01*
X303487Y189268D01*
X305123Y189945D01*
X306633Y190870D01*
X307980Y192020D01*
X309130Y193367D01*
X310055Y194877D01*
X310733Y196513D01*
X311146Y198235D01*
X311285Y200000D01*
X311146Y201765D01*
X310733Y203487D01*
X310055Y205123D01*
X309130Y206633D01*
X307980Y207980D01*
X306633Y209130D01*
X305123Y210055D01*
X303487Y210733D01*
X301765Y211146D01*
X300000Y211285D01*
D02*
G37*
G36*
X321500Y178195D02*
Y176500D01*
X323195D01*
X323119Y176878D01*
X322622Y177622D01*
X321878Y178120D01*
X321500Y178195D01*
D02*
G37*
G36*
X320500D02*
X320122Y178120D01*
X319378Y177622D01*
X318881Y176878D01*
X318805Y176500D01*
X320500D01*
Y178195D01*
D02*
G37*
G36*
X309500D02*
Y176500D01*
X311195D01*
X311120Y176878D01*
X310622Y177622D01*
X309878Y178120D01*
X309500Y178195D01*
D02*
G37*
G36*
X308500D02*
X308122Y178120D01*
X307378Y177622D01*
X306880Y176878D01*
X306805Y176500D01*
X308500D01*
Y178195D01*
D02*
G37*
G36*
X323195Y175500D02*
X321500D01*
Y173805D01*
X321878Y173881D01*
X322622Y174378D01*
X323119Y175122D01*
X323195Y175500D01*
D02*
G37*
G36*
X320500D02*
X318805D01*
X318881Y175122D01*
X319378Y174378D01*
X320122Y173881D01*
X320500Y173805D01*
Y175500D01*
D02*
G37*
G36*
X311195D02*
X309500D01*
Y173805D01*
X309878Y173881D01*
X310622Y174378D01*
X311120Y175122D01*
X311195Y175500D01*
D02*
G37*
G36*
X308500D02*
X306805D01*
X306880Y175122D01*
X307378Y174378D01*
X308122Y173881D01*
X308500Y173805D01*
Y175500D01*
D02*
G37*
G36*
X291000Y178294D02*
X290122Y178120D01*
X289378Y177622D01*
X288880Y176878D01*
X288706Y176000D01*
X288880Y175122D01*
X289378Y174378D01*
X290122Y173881D01*
X291000Y173706D01*
X291878Y173881D01*
X292622Y174378D01*
X293120Y175122D01*
X293294Y176000D01*
X293120Y176878D01*
X292622Y177622D01*
X291878Y178120D01*
X291000Y178294D01*
D02*
G37*
G36*
X279000D02*
X278122Y178120D01*
X277378Y177622D01*
X276881Y176878D01*
X276706Y176000D01*
X276881Y175122D01*
X277378Y174378D01*
X278122Y173881D01*
X279000Y173706D01*
X279878Y173881D01*
X280622Y174378D01*
X281119Y175122D01*
X281294Y176000D01*
X281119Y176878D01*
X280622Y177622D01*
X279878Y178120D01*
X279000Y178294D01*
D02*
G37*
G36*
X315500Y174195D02*
Y172500D01*
X317195D01*
X317120Y172878D01*
X316622Y173622D01*
X315878Y174119D01*
X315500Y174195D01*
D02*
G37*
G36*
X314500D02*
X314122Y174119D01*
X313378Y173622D01*
X312880Y172878D01*
X312805Y172500D01*
X314500D01*
Y174195D01*
D02*
G37*
G36*
X317195Y171500D02*
X315500D01*
Y169805D01*
X315878Y169880D01*
X316622Y170378D01*
X317120Y171122D01*
X317195Y171500D01*
D02*
G37*
G36*
X314500D02*
X312805D01*
X312880Y171122D01*
X313378Y170378D01*
X314122Y169880D01*
X314500Y169805D01*
Y171500D01*
D02*
G37*
G36*
X285000Y174294D02*
X284122Y174119D01*
X283378Y173622D01*
X282880Y172878D01*
X282706Y172000D01*
X282880Y171122D01*
X283378Y170378D01*
X284122Y169880D01*
X285000Y169706D01*
X285878Y169880D01*
X286622Y170378D01*
X287120Y171122D01*
X287294Y172000D01*
X287120Y172878D01*
X286622Y173622D01*
X285878Y174119D01*
X285000Y174294D01*
D02*
G37*
G36*
X321500Y170195D02*
Y168500D01*
X323195D01*
X323119Y168878D01*
X322622Y169622D01*
X321878Y170120D01*
X321500Y170195D01*
D02*
G37*
G36*
X320500D02*
X320122Y170120D01*
X319378Y169622D01*
X318881Y168878D01*
X318805Y168500D01*
X320500D01*
Y170195D01*
D02*
G37*
G36*
X309500D02*
Y168500D01*
X311195D01*
X311120Y168878D01*
X310622Y169622D01*
X309878Y170120D01*
X309500Y170195D01*
D02*
G37*
G36*
X308500D02*
X308122Y170120D01*
X307378Y169622D01*
X306880Y168878D01*
X306805Y168500D01*
X308500D01*
Y170195D01*
D02*
G37*
G36*
X323195Y167500D02*
X321500D01*
Y165805D01*
X321878Y165881D01*
X322622Y166378D01*
X323119Y167122D01*
X323195Y167500D01*
D02*
G37*
G36*
X320500D02*
X318805D01*
X318881Y167122D01*
X319378Y166378D01*
X320122Y165881D01*
X320500Y165805D01*
Y167500D01*
D02*
G37*
G36*
X311195D02*
X309500D01*
Y165805D01*
X309878Y165881D01*
X310622Y166378D01*
X311120Y167122D01*
X311195Y167500D01*
D02*
G37*
G36*
X308500D02*
X306805D01*
X306880Y167122D01*
X307378Y166378D01*
X308122Y165881D01*
X308500Y165805D01*
Y167500D01*
D02*
G37*
G36*
X291000Y170294D02*
X290122Y170120D01*
X289378Y169622D01*
X288880Y168878D01*
X288706Y168000D01*
X288880Y167122D01*
X289378Y166378D01*
X290122Y165881D01*
X291000Y165706D01*
X291878Y165881D01*
X292622Y166378D01*
X293120Y167122D01*
X293294Y168000D01*
X293120Y168878D01*
X292622Y169622D01*
X291878Y170120D01*
X291000Y170294D01*
D02*
G37*
G36*
X279000D02*
X278122Y170120D01*
X277378Y169622D01*
X276881Y168878D01*
X276706Y168000D01*
X276881Y167122D01*
X277378Y166378D01*
X278122Y165881D01*
X279000Y165706D01*
X279878Y165881D01*
X280622Y166378D01*
X281119Y167122D01*
X281294Y168000D01*
X281119Y168878D01*
X280622Y169622D01*
X279878Y170120D01*
X279000Y170294D01*
D02*
G37*
G36*
X315500Y166195D02*
Y164500D01*
X317195D01*
X317120Y164878D01*
X316622Y165622D01*
X315878Y166120D01*
X315500Y166195D01*
D02*
G37*
G36*
X314500D02*
X314122Y166120D01*
X313378Y165622D01*
X312880Y164878D01*
X312805Y164500D01*
X314500D01*
Y166195D01*
D02*
G37*
G36*
X317195Y163500D02*
X315500D01*
Y161805D01*
X315878Y161881D01*
X316622Y162378D01*
X317120Y163122D01*
X317195Y163500D01*
D02*
G37*
G36*
X314500D02*
X312805D01*
X312880Y163122D01*
X313378Y162378D01*
X314122Y161881D01*
X314500Y161805D01*
Y163500D01*
D02*
G37*
G36*
X285000Y166294D02*
X284122Y166120D01*
X283378Y165622D01*
X282880Y164878D01*
X282706Y164000D01*
X282880Y163122D01*
X283378Y162378D01*
X284122Y161881D01*
X285000Y161706D01*
X285878Y161881D01*
X286622Y162378D01*
X287120Y163122D01*
X287294Y164000D01*
X287120Y164878D01*
X286622Y165622D01*
X285878Y166120D01*
X285000Y166294D01*
D02*
G37*
G36*
X438295Y171467D02*
Y161130D01*
X448632D01*
X448537Y162331D01*
X448139Y163991D01*
X447486Y165568D01*
X446594Y167023D01*
X445486Y168321D01*
X444188Y169429D01*
X442733Y170321D01*
X441156Y170974D01*
X439497Y171372D01*
X438295Y171467D01*
D02*
G37*
G36*
X437295D02*
X436094Y171372D01*
X434434Y170974D01*
X432858Y170321D01*
X431402Y169429D01*
X430105Y168321D01*
X428996Y167023D01*
X428105Y165568D01*
X427452Y163991D01*
X427053Y162331D01*
X426959Y161130D01*
X437295D01*
Y171467D01*
D02*
G37*
G36*
X162705D02*
Y161130D01*
X173041D01*
X172947Y162331D01*
X172548Y163991D01*
X171895Y165568D01*
X171004Y167023D01*
X169895Y168321D01*
X168597Y169429D01*
X167142Y170321D01*
X165566Y170974D01*
X163906Y171372D01*
X162705Y171467D01*
D02*
G37*
G36*
X161705D02*
X160503Y171372D01*
X158844Y170974D01*
X157267Y170321D01*
X155812Y169429D01*
X154514Y168321D01*
X153406Y167023D01*
X152514Y165568D01*
X151861Y163991D01*
X151463Y162331D01*
X151368Y161130D01*
X161705D01*
Y171467D01*
D02*
G37*
G36*
X321500Y162195D02*
Y160500D01*
X323195D01*
X323119Y160878D01*
X322622Y161622D01*
X321878Y162119D01*
X321500Y162195D01*
D02*
G37*
G36*
X320500D02*
X320122Y162119D01*
X319378Y161622D01*
X318881Y160878D01*
X318805Y160500D01*
X320500D01*
Y162195D01*
D02*
G37*
G36*
X309500D02*
Y160500D01*
X311195D01*
X311120Y160878D01*
X310622Y161622D01*
X309878Y162119D01*
X309500Y162195D01*
D02*
G37*
G36*
X308500D02*
X308122Y162119D01*
X307378Y161622D01*
X306880Y160878D01*
X306805Y160500D01*
X308500D01*
Y162195D01*
D02*
G37*
G36*
X323195Y159500D02*
X321500D01*
Y157805D01*
X321878Y157880D01*
X322622Y158378D01*
X323119Y159122D01*
X323195Y159500D01*
D02*
G37*
G36*
X320500D02*
X318805D01*
X318881Y159122D01*
X319378Y158378D01*
X320122Y157880D01*
X320500Y157805D01*
Y159500D01*
D02*
G37*
G36*
X311195D02*
X309500D01*
Y157805D01*
X309878Y157880D01*
X310622Y158378D01*
X311120Y159122D01*
X311195Y159500D01*
D02*
G37*
G36*
X308500D02*
X306805D01*
X306880Y159122D01*
X307378Y158378D01*
X308122Y157880D01*
X308500Y157805D01*
Y159500D01*
D02*
G37*
G36*
X291000Y162294D02*
X290122Y162119D01*
X289378Y161622D01*
X288880Y160878D01*
X288706Y160000D01*
X288880Y159122D01*
X289378Y158378D01*
X290122Y157880D01*
X291000Y157706D01*
X291878Y157880D01*
X292622Y158378D01*
X293120Y159122D01*
X293294Y160000D01*
X293120Y160878D01*
X292622Y161622D01*
X291878Y162119D01*
X291000Y162294D01*
D02*
G37*
G36*
X279000D02*
X278122Y162119D01*
X277378Y161622D01*
X276881Y160878D01*
X276706Y160000D01*
X276881Y159122D01*
X277378Y158378D01*
X278122Y157880D01*
X279000Y157706D01*
X279878Y157880D01*
X280622Y158378D01*
X281119Y159122D01*
X281294Y160000D01*
X281119Y160878D01*
X280622Y161622D01*
X279878Y162119D01*
X279000Y162294D01*
D02*
G37*
G36*
X315500Y158195D02*
Y156500D01*
X317195D01*
X317120Y156878D01*
X316622Y157622D01*
X315878Y158119D01*
X315500Y158195D01*
D02*
G37*
G36*
X314500D02*
X314122Y158119D01*
X313378Y157622D01*
X312880Y156878D01*
X312805Y156500D01*
X314500D01*
Y158195D01*
D02*
G37*
G36*
X317195Y155500D02*
X315500D01*
Y153805D01*
X315878Y153881D01*
X316622Y154378D01*
X317120Y155122D01*
X317195Y155500D01*
D02*
G37*
G36*
X314500D02*
X312805D01*
X312880Y155122D01*
X313378Y154378D01*
X314122Y153881D01*
X314500Y153805D01*
Y155500D01*
D02*
G37*
G36*
X285000Y158294D02*
X284122Y158119D01*
X283378Y157622D01*
X282880Y156878D01*
X282706Y156000D01*
X282880Y155122D01*
X283378Y154378D01*
X284122Y153881D01*
X285000Y153706D01*
X285878Y153881D01*
X286622Y154378D01*
X287120Y155122D01*
X287294Y156000D01*
X287120Y156878D01*
X286622Y157622D01*
X285878Y158119D01*
X285000Y158294D01*
D02*
G37*
G36*
X195000Y167034D02*
X193628Y166899D01*
X192308Y166498D01*
X191092Y165849D01*
X190026Y164974D01*
X189152Y163908D01*
X188502Y162692D01*
X188101Y161372D01*
X187966Y160000D01*
X188101Y158628D01*
X188502Y157308D01*
X189152Y156092D01*
X190026Y155026D01*
X191092Y154151D01*
X192308Y153501D01*
X193628Y153101D01*
X195000Y152966D01*
X196372Y153101D01*
X197692Y153501D01*
X198908Y154151D01*
X199974Y155026D01*
X200849Y156092D01*
X201499Y157308D01*
X201899Y158628D01*
X202034Y160000D01*
X201899Y161372D01*
X201499Y162692D01*
X200849Y163908D01*
X199974Y164974D01*
X198908Y165849D01*
X197692Y166498D01*
X196372Y166899D01*
X195000Y167034D01*
D02*
G37*
G36*
X321500Y154195D02*
Y152500D01*
X323195D01*
X323119Y152878D01*
X322622Y153622D01*
X321878Y154120D01*
X321500Y154195D01*
D02*
G37*
G36*
X320500D02*
X320122Y154120D01*
X319378Y153622D01*
X318881Y152878D01*
X318805Y152500D01*
X320500D01*
Y154195D01*
D02*
G37*
G36*
X309500D02*
Y152500D01*
X311195D01*
X311120Y152878D01*
X310622Y153622D01*
X309878Y154120D01*
X309500Y154195D01*
D02*
G37*
G36*
X308500D02*
X308122Y154120D01*
X307378Y153622D01*
X306880Y152878D01*
X306805Y152500D01*
X308500D01*
Y154195D01*
D02*
G37*
G36*
X354000Y160000D02*
X336000D01*
Y150000D01*
X354000D01*
Y160000D01*
D02*
G37*
G36*
X323195Y151500D02*
X321500D01*
Y149805D01*
X321878Y149881D01*
X322622Y150378D01*
X323119Y151122D01*
X323195Y151500D01*
D02*
G37*
G36*
X320500D02*
X318805D01*
X318881Y151122D01*
X319378Y150378D01*
X320122Y149881D01*
X320500Y149805D01*
Y151500D01*
D02*
G37*
G36*
X311195D02*
X309500D01*
Y149805D01*
X309878Y149881D01*
X310622Y150378D01*
X311120Y151122D01*
X311195Y151500D01*
D02*
G37*
G36*
X308500D02*
X306805D01*
X306880Y151122D01*
X307378Y150378D01*
X308122Y149881D01*
X308500Y149805D01*
Y151500D01*
D02*
G37*
G36*
X448632Y160130D02*
X438295D01*
Y149793D01*
X439497Y149888D01*
X441156Y150286D01*
X442733Y150939D01*
X444188Y151831D01*
X445486Y152939D01*
X446594Y154237D01*
X447486Y155692D01*
X448139Y157269D01*
X448537Y158929D01*
X448632Y160130D01*
D02*
G37*
G36*
X437295D02*
X426959D01*
X427053Y158929D01*
X427452Y157269D01*
X428105Y155692D01*
X428996Y154237D01*
X430105Y152939D01*
X431402Y151831D01*
X432858Y150939D01*
X434434Y150286D01*
X436094Y149888D01*
X437295Y149793D01*
Y160130D01*
D02*
G37*
G36*
X173041D02*
X162705D01*
Y149793D01*
X163906Y149888D01*
X165566Y150286D01*
X167142Y150939D01*
X168597Y151831D01*
X169895Y152939D01*
X171004Y154237D01*
X171895Y155692D01*
X172548Y157269D01*
X172947Y158929D01*
X173041Y160130D01*
D02*
G37*
G36*
X161705D02*
X151368D01*
X151463Y158929D01*
X151861Y157269D01*
X152514Y155692D01*
X153406Y154237D01*
X154514Y152939D01*
X155812Y151831D01*
X157267Y150939D01*
X158844Y150286D01*
X160503Y149888D01*
X161705Y149793D01*
Y160130D01*
D02*
G37*
G36*
X291000Y154294D02*
X290122Y154120D01*
X289378Y153622D01*
X288880Y152878D01*
X288706Y152000D01*
X288880Y151122D01*
X289378Y150378D01*
X290122Y149881D01*
X291000Y149706D01*
X291878Y149881D01*
X292622Y150378D01*
X293120Y151122D01*
X293294Y152000D01*
X293120Y152878D01*
X292622Y153622D01*
X291878Y154120D01*
X291000Y154294D01*
D02*
G37*
G36*
X279000D02*
X278122Y154120D01*
X277378Y153622D01*
X276881Y152878D01*
X276706Y152000D01*
X276881Y151122D01*
X277378Y150378D01*
X278122Y149881D01*
X279000Y149706D01*
X279878Y149881D01*
X280622Y150378D01*
X281119Y151122D01*
X281294Y152000D01*
X281119Y152878D01*
X280622Y153622D01*
X279878Y154120D01*
X279000Y154294D01*
D02*
G37*
G36*
X315500Y150195D02*
Y148500D01*
X317195D01*
X317120Y148878D01*
X316622Y149622D01*
X315878Y150119D01*
X315500Y150195D01*
D02*
G37*
G36*
X314500D02*
X314122Y150119D01*
X313378Y149622D01*
X312880Y148878D01*
X312805Y148500D01*
X314500D01*
Y150195D01*
D02*
G37*
G36*
X317195Y147500D02*
X315500D01*
Y145805D01*
X315878Y145880D01*
X316622Y146378D01*
X317120Y147122D01*
X317195Y147500D01*
D02*
G37*
G36*
X314500D02*
X312805D01*
X312880Y147122D01*
X313378Y146378D01*
X314122Y145880D01*
X314500Y145805D01*
Y147500D01*
D02*
G37*
G36*
X285000Y150294D02*
X284122Y150119D01*
X283378Y149622D01*
X282880Y148878D01*
X282706Y148000D01*
X282880Y147122D01*
X283378Y146378D01*
X284122Y145880D01*
X285000Y145706D01*
X285878Y145880D01*
X286622Y146378D01*
X287120Y147122D01*
X287294Y148000D01*
X287120Y148878D01*
X286622Y149622D01*
X285878Y150119D01*
X285000Y150294D01*
D02*
G37*
G36*
X321500Y146195D02*
Y144500D01*
X323195D01*
X323119Y144878D01*
X322622Y145622D01*
X321878Y146119D01*
X321500Y146195D01*
D02*
G37*
G36*
X320500D02*
X320122Y146119D01*
X319378Y145622D01*
X318881Y144878D01*
X318805Y144500D01*
X320500D01*
Y146195D01*
D02*
G37*
G36*
X309500D02*
Y144500D01*
X311195D01*
X311120Y144878D01*
X310622Y145622D01*
X309878Y146119D01*
X309500Y146195D01*
D02*
G37*
G36*
X308500D02*
X308122Y146119D01*
X307378Y145622D01*
X306880Y144878D01*
X306805Y144500D01*
X308500D01*
Y146195D01*
D02*
G37*
G36*
X323195Y143500D02*
X321500D01*
Y141805D01*
X321878Y141881D01*
X322622Y142378D01*
X323119Y143122D01*
X323195Y143500D01*
D02*
G37*
G36*
X320500D02*
X318805D01*
X318881Y143122D01*
X319378Y142378D01*
X320122Y141881D01*
X320500Y141805D01*
Y143500D01*
D02*
G37*
G36*
X311195D02*
X309500D01*
Y141805D01*
X309878Y141881D01*
X310622Y142378D01*
X311120Y143122D01*
X311195Y143500D01*
D02*
G37*
G36*
X308500D02*
X306805D01*
X306880Y143122D01*
X307378Y142378D01*
X308122Y141881D01*
X308500Y141805D01*
Y143500D01*
D02*
G37*
G36*
X291000Y146294D02*
X290122Y146119D01*
X289378Y145622D01*
X288880Y144878D01*
X288706Y144000D01*
X288880Y143122D01*
X289378Y142378D01*
X290122Y141881D01*
X291000Y141706D01*
X291878Y141881D01*
X292622Y142378D01*
X293120Y143122D01*
X293294Y144000D01*
X293120Y144878D01*
X292622Y145622D01*
X291878Y146119D01*
X291000Y146294D01*
D02*
G37*
G36*
X279000D02*
X278122Y146119D01*
X277378Y145622D01*
X276881Y144878D01*
X276706Y144000D01*
X276881Y143122D01*
X277378Y142378D01*
X278122Y141881D01*
X279000Y141706D01*
X279878Y141881D01*
X280622Y142378D01*
X281119Y143122D01*
X281294Y144000D01*
X281119Y144878D01*
X280622Y145622D01*
X279878Y146119D01*
X279000Y146294D01*
D02*
G37*
%LPD*%
D11*
X351499Y152000D02*
X347500D01*
X351499Y155999D01*
Y156998D01*
X350499Y157998D01*
X348500D01*
X347500Y156998D01*
D33*
X195000Y160000D02*
D03*
X457500Y322500D02*
D03*
X350000Y196000D02*
D03*
Y204000D02*
D03*
X450000Y196000D02*
D03*
Y204000D02*
D03*
Y304000D02*
D03*
Y296000D02*
D03*
X350000Y304000D02*
D03*
Y296000D02*
D03*
X150000Y304000D02*
D03*
Y296000D02*
D03*
X250000Y304000D02*
D03*
Y296000D02*
D03*
Y196000D02*
D03*
Y204000D02*
D03*
X150000Y196000D02*
D03*
Y204000D02*
D03*
D36*
X317100Y252100D02*
X370500D01*
X285000Y220000D02*
X317100Y252100D01*
D38*
X306000Y312110D02*
D03*
X294000D02*
D03*
Y324110D02*
D03*
X291500Y318110D02*
D03*
X300000Y309610D02*
D03*
X306000Y324110D02*
D03*
X308500Y318110D02*
D03*
X300000Y326610D02*
D03*
X162205Y169130D02*
D03*
X170705Y160630D02*
D03*
X168205Y166630D02*
D03*
X162205Y152130D02*
D03*
X153705Y160630D02*
D03*
X156205Y166630D02*
D03*
Y154630D02*
D03*
X168205D02*
D03*
X437795Y169130D02*
D03*
X446295Y160630D02*
D03*
X443795Y166630D02*
D03*
X437795Y152130D02*
D03*
X429295Y160630D02*
D03*
X431795Y166630D02*
D03*
Y154630D02*
D03*
X443795D02*
D03*
D39*
X300000Y318110D02*
D03*
X162205Y160630D02*
D03*
X437795D02*
D03*
D40*
X321000Y152000D02*
D03*
Y144000D02*
D03*
Y160000D02*
D03*
Y168000D02*
D03*
Y176000D02*
D03*
X315000Y148000D02*
D03*
Y156000D02*
D03*
Y164000D02*
D03*
Y172000D02*
D03*
X309000Y152000D02*
D03*
Y144000D02*
D03*
Y160000D02*
D03*
Y168000D02*
D03*
Y176000D02*
D03*
X279000Y144000D02*
D03*
Y152000D02*
D03*
Y176000D02*
D03*
Y168000D02*
D03*
Y160000D02*
D03*
X285000Y148000D02*
D03*
Y156000D02*
D03*
Y164000D02*
D03*
Y172000D02*
D03*
X291000Y144000D02*
D03*
Y152000D02*
D03*
Y176000D02*
D03*
Y168000D02*
D03*
Y160000D02*
D03*
D41*
X184900Y232500D02*
D03*
Y225000D02*
D03*
X177600Y269500D02*
D03*
X197600D02*
D03*
X187600D02*
D03*
X378200D02*
D03*
X398200D02*
D03*
X388200D02*
D03*
X370500Y252100D02*
D03*
D42*
X285000Y220000D02*
D03*
M02*
