G04*
G04 #@! TF.GenerationSoftware,Altium Limited,Altium Designer,20.1.14 (287)*
G04*
G04 Layer_Color=16711935*
%FSLAX25Y25*%
%MOIN*%
G70*
G04*
G04 #@! TF.SameCoordinates,7963FD37-A3EF-41C6-90A3-C7C30B782ED2*
G04*
G04*
G04 #@! TF.FilePolarity,Negative*
G04*
G01*
G75*
%ADD19C,0.11811*%
%ADD22C,0.04737*%
%ADD23C,0.02800*%
%ADD24C,0.20485*%
%ADD25C,0.03300*%
%ADD26C,0.20472*%
D19*
X195000Y160000D02*
D03*
X457500Y322500D02*
D03*
D22*
X350000Y196000D02*
D03*
Y204000D02*
D03*
X450000Y196000D02*
D03*
Y204000D02*
D03*
Y304000D02*
D03*
Y296000D02*
D03*
X350000Y304000D02*
D03*
Y296000D02*
D03*
X150000Y304000D02*
D03*
Y296000D02*
D03*
X250000Y304000D02*
D03*
Y296000D02*
D03*
Y196000D02*
D03*
Y204000D02*
D03*
X150000Y196000D02*
D03*
Y204000D02*
D03*
D23*
X306000Y312110D02*
D03*
X294000D02*
D03*
Y324110D02*
D03*
X291500Y318110D02*
D03*
X300000Y309610D02*
D03*
X306000Y324110D02*
D03*
X308500Y318110D02*
D03*
X300000Y326610D02*
D03*
X162205Y169130D02*
D03*
X170705Y160630D02*
D03*
X168205Y166630D02*
D03*
X162205Y152130D02*
D03*
X153705Y160630D02*
D03*
X156205Y166630D02*
D03*
Y154630D02*
D03*
X168205D02*
D03*
X437795Y169130D02*
D03*
X446295Y160630D02*
D03*
X443795Y166630D02*
D03*
X437795Y152130D02*
D03*
X429295Y160630D02*
D03*
X431795Y166630D02*
D03*
Y154630D02*
D03*
X443795D02*
D03*
D24*
X300000Y318110D02*
D03*
X162205Y160630D02*
D03*
X437795D02*
D03*
D25*
X321000Y152000D02*
D03*
Y144000D02*
D03*
Y160000D02*
D03*
Y168000D02*
D03*
Y176000D02*
D03*
X315000Y148000D02*
D03*
Y156000D02*
D03*
Y164000D02*
D03*
Y172000D02*
D03*
X309000Y152000D02*
D03*
Y144000D02*
D03*
Y160000D02*
D03*
Y168000D02*
D03*
Y176000D02*
D03*
X279000Y144000D02*
D03*
Y152000D02*
D03*
Y176000D02*
D03*
Y168000D02*
D03*
Y160000D02*
D03*
X285000Y148000D02*
D03*
Y156000D02*
D03*
Y164000D02*
D03*
Y172000D02*
D03*
X291000Y144000D02*
D03*
Y152000D02*
D03*
Y176000D02*
D03*
Y168000D02*
D03*
Y160000D02*
D03*
D26*
X201575Y298425D02*
D03*
X300000Y200000D02*
D03*
X398425Y298425D02*
D03*
M02*
