M48
;Layer_Color=9474304
;FILE_FORMAT=2:5
INCH,TZ
;TYPE=PLATED
T1F00S00C0.01000
T2F00S00C0.01500
T3F00S00C0.01575
T4F00S00C0.01968
T5F00S00C0.02800
T6F00S00C0.13780
;TYPE=NON_PLATED
T7F00S00C0.13780
%
T01
X156205Y154630
X162205Y152130
X168205Y154630
X431795
X437795Y152130
X443795Y154630
X446295Y160630
X443795Y166630
X437795Y169130
X431795Y166630
X429295Y160630
X170705
X168205Y166630
X162205Y169130
X294000Y312110
X300000Y309610
X306000Y312110
X156205Y166630
X153705Y160630
X291500Y318110
X294000Y324110
X300000Y326610
X306000Y324110
X308500Y318110
T02
X279000Y144000
Y152000
X285000Y148000
Y156000
X291000Y152000
Y144000
X309000
Y152000
X315000Y148000
Y156000
X321000Y152000
Y144000
Y160000
Y168000
Y176000
X315000Y172000
Y164000
X309000Y160000
Y168000
Y176000
X291000
Y168000
Y160000
X285000Y164000
Y172000
X279000Y176000
Y168000
Y160000
T03
X370500Y252100
X378200Y269500
X388200
X398200
X197600
X187600
X177600
X184900Y232500
Y225000
T04
X350000Y196000
Y204000
Y296000
Y304000
X450000
Y296000
Y204000
Y196000
X250000
Y204000
Y296000
Y304000
X150000
Y296000
Y204000
Y196000
T05
X285000Y220000
T06
X437795Y160630
X162205
X300000Y318110
T07
X398425Y298425
X201575
X300000Y200000
M30
