G04*
G04 #@! TF.GenerationSoftware,Altium Limited,Altium Designer,20.1.14 (287)*
G04*
G04 Layer_Physical_Order=1*
G04 Layer_Color=255*
%FSLAX25Y25*%
%MOIN*%
G70*
G04*
G04 #@! TF.SameCoordinates,7963FD37-A3EF-41C6-90A3-C7C30B782ED2*
G04*
G04*
G04 #@! TF.FilePolarity,Positive*
G04*
G01*
G75*
%ADD11C,0.01000*%
%ADD27R,0.01968X0.12992*%
%ADD28R,0.05906X0.03937*%
%ADD29R,0.03000X0.04000*%
%ADD30R,0.04000X0.03000*%
%ADD31R,0.02756X0.03937*%
%ADD32R,0.07874X0.23622*%
%ADD33C,0.03937*%
%ADD34R,0.01968X0.02953*%
%ADD35R,0.19685X0.39370*%
%ADD36C,0.05000*%
%ADD37C,0.02500*%
%ADD38C,0.02000*%
%ADD39C,0.19685*%
%ADD40C,0.02500*%
%ADD41C,0.03150*%
%ADD42C,0.05000*%
G36*
X152559Y188189D02*
X147441D01*
Y211811D01*
X152559D01*
Y201969D01*
X150591Y200000D01*
X152559Y198031D01*
Y188189D01*
D02*
G37*
G36*
X252559D02*
X247441D01*
Y211811D01*
X252559D01*
Y201969D01*
X250590Y200000D01*
X252559Y198031D01*
Y188189D01*
D02*
G37*
G36*
X147441Y311811D02*
X152559D01*
Y288189D01*
X147441D01*
Y298031D01*
X149409Y300000D01*
X147441Y301969D01*
Y311811D01*
D02*
G37*
G36*
X247441D02*
X252559D01*
Y288189D01*
X247441D01*
Y298031D01*
X249410Y300000D01*
X247441Y301969D01*
Y311811D01*
D02*
G37*
G36*
X352559Y188189D02*
X347441D01*
Y211811D01*
X352559D01*
Y201969D01*
X350590Y200000D01*
X352559Y198031D01*
Y188189D01*
D02*
G37*
G36*
X452559D02*
X447441D01*
Y211811D01*
X452559D01*
Y201969D01*
X450591Y200000D01*
X452559Y198031D01*
Y188189D01*
D02*
G37*
G36*
X347441Y311811D02*
X352559D01*
Y288189D01*
X347441D01*
Y298031D01*
X349410Y300000D01*
X347441Y301969D01*
Y311811D01*
D02*
G37*
G36*
X447441D02*
X452559D01*
Y288189D01*
X447441D01*
Y298031D01*
X449409Y300000D01*
X447441Y301969D01*
Y311811D01*
D02*
G37*
D11*
X339500Y152000D02*
X341499D01*
X340500D01*
Y157998D01*
X339500Y156998D01*
D27*
X355512Y200000D02*
D03*
X344488D02*
D03*
X455512D02*
D03*
X444488D02*
D03*
Y300000D02*
D03*
X455512D02*
D03*
X344488D02*
D03*
X355512D02*
D03*
X144488D02*
D03*
X155512D02*
D03*
X244488D02*
D03*
X255512D02*
D03*
Y200000D02*
D03*
X244488D02*
D03*
X155512D02*
D03*
X144488D02*
D03*
D28*
X340600D02*
D03*
X359400D02*
D03*
X440600D02*
D03*
X459400D02*
D03*
Y300000D02*
D03*
X440600D02*
D03*
X359400D02*
D03*
X340600D02*
D03*
X159400D02*
D03*
X140600D02*
D03*
X259400D02*
D03*
X240600D02*
D03*
Y200000D02*
D03*
X259400D02*
D03*
X140600D02*
D03*
X159400D02*
D03*
D29*
X181376Y262000D02*
D03*
X187624D02*
D03*
X381876D02*
D03*
X388124D02*
D03*
X384876Y240000D02*
D03*
X391124D02*
D03*
X184876D02*
D03*
X191124D02*
D03*
D30*
X378000Y245876D02*
D03*
Y252124D02*
D03*
X177500D02*
D03*
Y245876D02*
D03*
D31*
X384260Y245882D02*
D03*
X388000Y256118D02*
D03*
X384260D02*
D03*
X391740Y245882D02*
D03*
Y256118D02*
D03*
X183760Y245882D02*
D03*
X187500Y256118D02*
D03*
X183760D02*
D03*
X191240Y245882D02*
D03*
Y256118D02*
D03*
D32*
X399500Y250000D02*
D03*
X421000D02*
D03*
X221000D02*
D03*
X199500D02*
D03*
D33*
X195000Y159370D02*
D03*
X457500Y322500D02*
D03*
X350000Y196000D02*
D03*
Y204000D02*
D03*
X450000Y196000D02*
D03*
Y204000D02*
D03*
Y304000D02*
D03*
Y296000D02*
D03*
X350000Y304000D02*
D03*
Y296000D02*
D03*
X150000Y304000D02*
D03*
Y296000D02*
D03*
X250000Y304000D02*
D03*
Y296000D02*
D03*
Y196000D02*
D03*
Y204000D02*
D03*
X150000Y196000D02*
D03*
Y204000D02*
D03*
D34*
X399831Y233500D02*
D03*
X391169D02*
D03*
X199831D02*
D03*
X191169D02*
D03*
D35*
X315000Y160000D02*
D03*
X285000D02*
D03*
D36*
X159400Y200000D02*
Y227776D01*
X177500Y245876D01*
X191169Y226331D02*
Y233500D01*
Y226331D02*
X246250Y171250D01*
X359400Y200000D02*
Y227276D01*
X378000Y245876D01*
X384876Y202376D02*
Y239914D01*
X353750Y171250D02*
X384876Y202376D01*
X277658Y171250D02*
X285000Y163908D01*
X246250Y171250D02*
X277658D01*
X285000Y172000D02*
Y220000D01*
X315000Y160000D02*
Y163908D01*
X322342Y171250D01*
X285000Y164000D02*
Y172000D01*
Y163908D02*
Y164000D01*
Y160000D02*
Y163908D01*
X340600Y200000D02*
Y300000D01*
X322342Y171250D02*
X353750D01*
X240600Y299921D02*
Y300000D01*
X240147Y299468D02*
X240600Y299921D01*
X240069Y299468D02*
X240147D01*
X220600Y280000D02*
X240069Y299468D01*
X179321Y280000D02*
X220600D01*
X159400Y299921D02*
Y300000D01*
Y299921D02*
X179321Y280000D01*
X240600Y200000D02*
Y222526D01*
X221000Y242126D02*
X240600Y222526D01*
X221000Y242126D02*
Y250000D01*
X259400Y200000D02*
Y300000D01*
X140600Y200000D02*
Y300000D01*
X177506Y245882D02*
X183760D01*
X177500Y245876D02*
X177506Y245882D01*
X440600Y200000D02*
Y222526D01*
X421000Y242126D02*
X440600Y222526D01*
X421000Y242126D02*
Y250000D01*
X378006Y245882D02*
X384260D01*
X378000Y245876D02*
X378006Y245882D01*
X440600Y299921D02*
Y300000D01*
X440147Y299468D02*
X440600Y299921D01*
X440068Y299468D02*
X440147D01*
X420600Y280000D02*
X440068Y299468D01*
X379321Y280000D02*
X420600D01*
X359400Y299921D02*
Y300000D01*
Y299921D02*
X379321Y280000D01*
X459400Y200000D02*
Y300000D01*
D37*
X184876Y232524D02*
X184900Y232500D01*
Y225000D02*
Y232500D01*
X184876Y232524D02*
Y240000D01*
X199500Y233791D02*
Y250000D01*
Y233791D02*
X199791Y233500D01*
X199831D01*
X191240Y256118D02*
X196813D01*
X199500Y253431D01*
Y250000D02*
Y253431D01*
X399500Y233791D02*
Y250000D01*
Y233791D02*
X399791Y233500D01*
X399831D01*
X391740Y256118D02*
X396813D01*
X399500Y253431D01*
Y250000D02*
Y253431D01*
X177600Y269500D02*
X187600D01*
X197600D01*
X187624Y262000D02*
Y269476D01*
X187600Y269500D02*
X187624Y269476D01*
X378200Y269500D02*
X388200D01*
X398200D01*
X388124Y269424D02*
X388200Y269500D01*
X388124Y262000D02*
Y269424D01*
X370524Y252124D02*
X378000D01*
X370500Y252100D02*
X370524Y252124D01*
X187500Y256118D02*
X187562Y256180D01*
Y261938D01*
X187624Y262000D01*
X183760Y256118D02*
Y256709D01*
X181626Y258842D02*
X183760Y256709D01*
X181626Y258842D02*
Y261750D01*
X181376Y262000D02*
X181626Y261750D01*
X191182Y240058D02*
Y246531D01*
X177500Y252124D02*
X177724Y251900D01*
X185813D01*
X191182Y246531D01*
X191124Y240000D02*
X191147Y239977D01*
Y233523D02*
Y239977D01*
X191124Y240000D02*
X191182Y240058D01*
X388000Y256118D02*
X388062Y256180D01*
Y261938D01*
X388124Y262000D01*
X384260Y256118D02*
Y256709D01*
X382126Y258842D02*
X384260Y256709D01*
X382126Y258842D02*
Y261750D01*
X381876Y262000D02*
X382126Y261750D01*
X391740Y245882D02*
Y246472D01*
X386313Y251900D02*
X391740Y246472D01*
X378224Y251900D02*
X386313D01*
X378000Y252124D02*
X378224Y251900D01*
X391124Y240000D02*
X391146Y239977D01*
Y233523D02*
Y239977D01*
Y233523D02*
X391169Y233500D01*
X391740Y241116D02*
Y245882D01*
X391124Y240500D02*
X391740Y241116D01*
X391124Y240000D02*
Y240500D01*
D38*
X306000Y312110D02*
D03*
X294000D02*
D03*
Y324110D02*
D03*
X291500Y318110D02*
D03*
X300000Y309610D02*
D03*
X306000Y324110D02*
D03*
X308500Y318110D02*
D03*
X300000Y326610D02*
D03*
X162205Y169130D02*
D03*
X170705Y160630D02*
D03*
X168205Y166630D02*
D03*
X162205Y152130D02*
D03*
X153705Y160630D02*
D03*
X156205Y166630D02*
D03*
Y154630D02*
D03*
X168205D02*
D03*
X437795Y169130D02*
D03*
X446295Y160630D02*
D03*
X443795Y166630D02*
D03*
X437795Y152130D02*
D03*
X429295Y160630D02*
D03*
X431795Y166630D02*
D03*
Y154630D02*
D03*
X443795D02*
D03*
D39*
X300000Y318110D02*
D03*
X162205Y160630D02*
D03*
X437795D02*
D03*
D40*
X321000Y152000D02*
D03*
Y144000D02*
D03*
Y160000D02*
D03*
Y168000D02*
D03*
Y176000D02*
D03*
X315000Y148000D02*
D03*
Y156000D02*
D03*
Y164000D02*
D03*
Y172000D02*
D03*
X309000Y152000D02*
D03*
Y144000D02*
D03*
Y160000D02*
D03*
Y168000D02*
D03*
Y176000D02*
D03*
X279000Y144000D02*
D03*
Y152000D02*
D03*
Y176000D02*
D03*
Y168000D02*
D03*
Y160000D02*
D03*
X285000Y148000D02*
D03*
Y156000D02*
D03*
Y164000D02*
D03*
Y172000D02*
D03*
X291000Y144000D02*
D03*
Y152000D02*
D03*
Y176000D02*
D03*
Y168000D02*
D03*
Y160000D02*
D03*
D41*
X184900Y232500D02*
D03*
Y225000D02*
D03*
X177600Y269500D02*
D03*
X197600D02*
D03*
X187600D02*
D03*
X378200D02*
D03*
X398200D02*
D03*
X388200D02*
D03*
X370500Y252100D02*
D03*
D42*
X285000Y220000D02*
D03*
M02*
