G04*
G04 #@! TF.GenerationSoftware,Altium Limited,Altium Designer,20.1.14 (287)*
G04*
G04 Layer_Color=65535*
%FSLAX25Y25*%
%MOIN*%
G70*
G04*
G04 #@! TF.SameCoordinates,7963FD37-A3EF-41C6-90A3-C7C30B782ED2*
G04*
G04*
G04 #@! TF.FilePolarity,Positive*
G04*
G01*
G75*
%ADD10C,0.00800*%
%ADD11C,0.01000*%
%ADD12C,0.01200*%
G36*
X300917Y280442D02*
X301305Y280330D01*
X301750Y280220D01*
X302250Y279997D01*
X302694Y279719D01*
X303194Y279331D01*
X303250Y279275D01*
X303361Y279164D01*
X303639Y278886D01*
X303694Y278831D01*
X303750Y278720D01*
X303972Y278386D01*
X320748Y249334D01*
X320803Y249278D01*
X320859Y249112D01*
X320970Y248778D01*
X321137Y248389D01*
X321248Y247945D01*
X321303Y247389D01*
Y246834D01*
X321248Y246223D01*
Y246167D01*
X321192Y246056D01*
X321137Y245834D01*
X321081Y245612D01*
Y245556D01*
X321026Y245445D01*
X320915Y245279D01*
X320803Y245001D01*
X320748D01*
X320692Y244945D01*
X320581Y244779D01*
X320415Y244501D01*
X320137Y244223D01*
X319804Y243890D01*
X319415Y243556D01*
X318915Y243279D01*
X318359Y243057D01*
X318304D01*
X318137Y243001D01*
X317915Y242945D01*
X317693D01*
X317637Y242890D01*
X317415D01*
X317137Y242834D01*
X283307Y242834D01*
X282974Y242890D01*
X282585Y243001D01*
X282085Y243112D01*
X281585Y243334D01*
X281085Y243612D01*
X280585Y244001D01*
X280530Y244056D01*
X280419Y244167D01*
X280141Y244445D01*
X280085Y244501D01*
X280030Y244612D01*
X279808Y245001D01*
X279752Y245056D01*
X279696Y245223D01*
X279585Y245501D01*
X279419Y245890D01*
X279308Y246334D01*
X279252Y246834D01*
Y247389D01*
X279308Y248001D01*
Y248056D01*
X279363Y248223D01*
X279419Y248445D01*
X279474Y248611D01*
Y248667D01*
X279530Y248778D01*
X279641Y248945D01*
X279752Y249167D01*
Y249223D01*
Y249278D01*
X279808D01*
X296528Y278275D01*
Y278331D01*
X296639Y278442D01*
X296861Y278775D01*
X297306Y279275D01*
X297806Y279719D01*
X297917Y279775D01*
X298139Y279886D01*
X298195Y279942D01*
X298306Y279997D01*
X298528Y280108D01*
X298750Y280220D01*
X299083Y280330D01*
X299472Y280386D01*
X299861Y280497D01*
X300583D01*
X300917Y280442D01*
D02*
G37*
G36*
X383111Y175682D02*
X383370Y175608D01*
X383666Y175534D01*
X384000Y175386D01*
X384296Y175201D01*
X384629Y174942D01*
X384666Y174905D01*
X384740Y174830D01*
X384926Y174645D01*
X384963Y174608D01*
X384999Y174534D01*
X385148Y174312D01*
X396331Y154945D01*
X396368Y154908D01*
X396405Y154797D01*
X396479Y154575D01*
X396590Y154316D01*
X396664Y154020D01*
X396701Y153649D01*
Y153279D01*
X396664Y152872D01*
Y152835D01*
X396627Y152761D01*
X396590Y152612D01*
X396553Y152464D01*
Y152427D01*
X396516Y152353D01*
X396442Y152242D01*
X396368Y152057D01*
X396331D01*
X396294Y152020D01*
X396220Y151909D01*
X396109Y151724D01*
X395923Y151539D01*
X395701Y151316D01*
X395442Y151094D01*
X395109Y150909D01*
X394738Y150761D01*
X394701D01*
X394590Y150724D01*
X394442Y150687D01*
X394294D01*
X394257Y150650D01*
X394109D01*
X393924Y150613D01*
X371373Y150613D01*
X371150Y150650D01*
X370891Y150724D01*
X370558Y150798D01*
X370225Y150946D01*
X369891Y151131D01*
X369558Y151391D01*
X369521Y151428D01*
X369447Y151502D01*
X369262Y151687D01*
X369225Y151724D01*
X369188Y151798D01*
X369040Y152057D01*
X369003Y152094D01*
X368966Y152205D01*
X368892Y152390D01*
X368780Y152649D01*
X368706Y152946D01*
X368669Y153279D01*
Y153649D01*
X368706Y154057D01*
Y154094D01*
X368743Y154205D01*
X368780Y154353D01*
X368817Y154464D01*
Y154501D01*
X368854Y154575D01*
X368929Y154686D01*
X369003Y154834D01*
Y154871D01*
Y154908D01*
X369040D01*
X380186Y174238D01*
Y174275D01*
X380260Y174349D01*
X380408Y174571D01*
X380704Y174905D01*
X381037Y175201D01*
X381111Y175238D01*
X381259Y175312D01*
X381296Y175349D01*
X381371Y175386D01*
X381519Y175460D01*
X381667Y175534D01*
X381889Y175608D01*
X382148Y175645D01*
X382407Y175719D01*
X382889D01*
X383111Y175682D01*
D02*
G37*
G36*
X396331Y146614D02*
X395849D01*
X393998Y149428D01*
Y146614D01*
X393553Y146614D01*
Y150169D01*
X394035Y150169D01*
X395886Y147391D01*
Y150169D01*
X396331D01*
Y146614D01*
D02*
G37*
G36*
X384518Y146614D02*
X384037D01*
X382148Y149428D01*
Y146614D01*
X381704D01*
Y150169D01*
X382185D01*
X384074Y147391D01*
Y150169D01*
X384518D01*
Y146614D01*
D02*
G37*
G36*
X388888D02*
X388406D01*
Y150169D01*
X388888D01*
Y146614D01*
D02*
G37*
G36*
X387851Y149761D02*
X386666D01*
Y146614D01*
X386185D01*
Y149761D01*
X385037D01*
Y150169D01*
X387851D01*
Y149761D01*
D02*
G37*
G36*
X381000D02*
X378890D01*
Y148650D01*
X380852D01*
Y148243D01*
X378890D01*
Y147021D01*
X381074D01*
Y146614D01*
X378408D01*
Y150169D01*
X381000D01*
Y149761D01*
D02*
G37*
G36*
X377927D02*
X376742D01*
Y146614D01*
X376297D01*
Y149761D01*
X375113D01*
Y150169D01*
X377927D01*
Y149761D01*
D02*
G37*
G36*
X374890D02*
X373742D01*
Y146614D01*
X373261D01*
Y149761D01*
X372076D01*
Y150169D01*
X374890D01*
Y149761D01*
D02*
G37*
G36*
X372335Y146614D02*
X371817D01*
X371410Y147687D01*
X369928D01*
X369521Y146614D01*
X369040D01*
X370373Y150169D01*
X370891D01*
X372335Y146614D01*
D02*
G37*
G36*
X391554Y150206D02*
X391850Y150131D01*
X392146Y149983D01*
X392220Y149946D01*
X392369Y149835D01*
X392554Y149613D01*
X392739Y149354D01*
Y149317D01*
X392776Y149280D01*
X392850Y149058D01*
X392924Y148761D01*
X392961Y148391D01*
Y148354D01*
Y148317D01*
X392924Y148058D01*
X392887Y147762D01*
X392739Y147428D01*
X392702Y147354D01*
X392591Y147169D01*
X392369Y146984D01*
X392109Y146799D01*
X392035Y146762D01*
X391850Y146688D01*
X391591Y146614D01*
X391258Y146577D01*
X391183D01*
X390961Y146614D01*
X390665Y146688D01*
X390369Y146799D01*
X390295Y146836D01*
X390147Y146984D01*
X389925Y147169D01*
X389739Y147465D01*
Y147502D01*
X389702Y147539D01*
X389665Y147725D01*
X389591Y148021D01*
X389554Y148354D01*
Y148391D01*
Y148502D01*
X389591Y148650D01*
X389628Y148872D01*
X389776Y149317D01*
X389887Y149539D01*
X390036Y149724D01*
X390073Y149761D01*
X390110Y149798D01*
X390221Y149872D01*
X390369Y149983D01*
X390739Y150169D01*
X390998Y150206D01*
X391258Y150243D01*
X391332D01*
X391554Y150206D01*
D02*
G37*
G36*
X381111Y146021D02*
X381148D01*
X381185Y145984D01*
X381334Y145836D01*
Y145799D01*
X381371Y145762D01*
X381408Y145540D01*
X381185D01*
Y145577D01*
Y145651D01*
X381148Y145725D01*
X381074Y145799D01*
X381037D01*
X381000Y145836D01*
X380778Y145873D01*
X380667D01*
X380556Y145836D01*
X380445Y145799D01*
X380408Y145762D01*
X380371Y145614D01*
Y145540D01*
X380408Y145429D01*
X380482Y145392D01*
X380593Y145355D01*
X380778Y145318D01*
X380815D01*
X380926Y145281D01*
X381074Y145244D01*
X381148Y145206D01*
X381185D01*
X381259Y145169D01*
X381334Y145095D01*
X381408Y145021D01*
X381445Y144947D01*
X381482Y144762D01*
Y144725D01*
Y144688D01*
X381445Y144577D01*
X381371Y144503D01*
X381334Y144466D01*
X381148Y144355D01*
X381111D01*
X381037Y144318D01*
X380815Y144281D01*
X380667D01*
X380408Y144355D01*
X380371D01*
X380334Y144392D01*
X380149Y144540D01*
Y144577D01*
X380112Y144614D01*
X380037Y144836D01*
X380297Y144873D01*
Y144799D01*
X380371Y144651D01*
X380408Y144614D01*
X380519Y144503D01*
X381074D01*
X381111Y144540D01*
X381185Y144614D01*
X381223Y144651D01*
X381259Y144762D01*
Y144799D01*
X381185Y144910D01*
X381148Y144947D01*
X381037Y145021D01*
X381000D01*
X380889Y145058D01*
X380704Y145095D01*
X380667D01*
X380593Y145133D01*
X380482Y145169D01*
X380371Y145206D01*
X380297Y145244D01*
X380186Y145392D01*
X380149Y145429D01*
X380112Y145577D01*
Y145614D01*
Y145651D01*
X380186Y145836D01*
Y145873D01*
X380260Y145910D01*
X380408Y146021D01*
X380445D01*
X380519Y146058D01*
X380741Y146095D01*
X380889D01*
X381111Y146021D01*
D02*
G37*
G36*
X389480D02*
X389628Y145947D01*
X389665Y145910D01*
X389702Y145836D01*
X389776Y145725D01*
X389850Y145577D01*
X389628Y145503D01*
Y145540D01*
X389591Y145614D01*
X389443Y145799D01*
X389369Y145836D01*
X389184Y145873D01*
X389073D01*
X388814Y145799D01*
Y145762D01*
X388740Y145725D01*
X388629Y145503D01*
Y145466D01*
X388591Y145392D01*
X388554Y145169D01*
Y145133D01*
Y145058D01*
X388629Y144799D01*
Y144762D01*
X388703Y144688D01*
X388740Y144614D01*
X388851Y144540D01*
X388962D01*
X389147Y144503D01*
X389258D01*
X389480Y144577D01*
X389517Y144614D01*
X389554Y144651D01*
X389628Y144762D01*
X389665Y144910D01*
X389887Y144836D01*
Y144799D01*
X389813Y144688D01*
X389739Y144540D01*
X389628Y144466D01*
X389591Y144429D01*
X389517Y144392D01*
X389369Y144318D01*
X389184Y144281D01*
X389147D01*
X388999Y144318D01*
X388851Y144355D01*
X388703Y144429D01*
X388666D01*
X388591Y144503D01*
X388517Y144577D01*
X388406Y144688D01*
Y144725D01*
X388369Y144836D01*
X388332Y144984D01*
Y145169D01*
Y145206D01*
Y145355D01*
X388369Y145503D01*
X388443Y145651D01*
Y145688D01*
X388517Y145762D01*
X388591Y145873D01*
X388740Y145984D01*
X388777Y146021D01*
X388851Y146058D01*
X388999Y146095D01*
X389332D01*
X389480Y146021D01*
D02*
G37*
G36*
X375668Y144318D02*
X375409D01*
Y145133D01*
X374483D01*
Y144318D01*
X374261D01*
Y146058D01*
X374483D01*
Y145318D01*
X375409D01*
Y146058D01*
X375668D01*
Y144318D01*
D02*
G37*
G36*
X383185Y145021D02*
Y144984D01*
Y144873D01*
X383148Y144725D01*
X383111Y144614D01*
X383074Y144540D01*
X383000Y144466D01*
X382889Y144392D01*
X382852D01*
X382778Y144355D01*
X382667Y144318D01*
X382482Y144281D01*
X382333D01*
X382185Y144318D01*
X382074Y144392D01*
X382037D01*
X382000Y144429D01*
X381852Y144577D01*
Y144614D01*
X381815Y144688D01*
X381778Y144836D01*
Y145021D01*
Y146058D01*
X382037D01*
Y145021D01*
Y144984D01*
Y144873D01*
Y144762D01*
X382074Y144688D01*
X382111Y144614D01*
X382222Y144503D01*
X382630D01*
X382741Y144540D01*
X382852Y144577D01*
X382889Y144614D01*
X382926Y144688D01*
X382963Y144799D01*
Y145021D01*
Y146058D01*
X383185D01*
Y145021D01*
D02*
G37*
G36*
X391480Y145836D02*
X390443D01*
Y145318D01*
X391406D01*
Y145095D01*
X390443D01*
Y144503D01*
X391517D01*
Y144318D01*
X390184D01*
Y146058D01*
X391480D01*
Y145836D01*
D02*
G37*
G36*
X388221Y144318D02*
X387925D01*
X387740Y144799D01*
X386999D01*
X386814Y144318D01*
X386555D01*
X387221Y146058D01*
X387480D01*
X388221Y144318D01*
D02*
G37*
G36*
X386555Y145836D02*
X385592D01*
Y145281D01*
X386444D01*
Y145095D01*
X385592D01*
Y144318D01*
X385370D01*
Y146058D01*
X386555D01*
Y145836D01*
D02*
G37*
G36*
X384740Y146021D02*
X384777D01*
X384814Y145984D01*
X384926Y145836D01*
Y145799D01*
X384963Y145762D01*
X384999Y145577D01*
Y145540D01*
Y145466D01*
X384963Y145355D01*
X384888Y145244D01*
X384851D01*
X384777Y145169D01*
X384666Y145133D01*
X384518Y145095D01*
X384555Y145058D01*
X384629Y144984D01*
X384703Y144947D01*
X384851Y144762D01*
X385148Y144318D01*
X384851D01*
X384629Y144651D01*
X384592Y144688D01*
X384555Y144762D01*
X384481Y144836D01*
X384444Y144910D01*
X384407Y144947D01*
X384333Y145021D01*
X384296D01*
X384222Y145058D01*
X383815D01*
Y144318D01*
X383592D01*
Y146058D01*
X384518D01*
X384740Y146021D01*
D02*
G37*
G36*
X379260Y145836D02*
X378667D01*
Y144318D01*
X378445D01*
Y145836D01*
X377853D01*
Y146058D01*
X379260D01*
Y145836D01*
D02*
G37*
G36*
X377112Y146021D02*
X377260Y145947D01*
X377297D01*
X377371Y145873D01*
X377482Y145799D01*
X377593Y145651D01*
Y145614D01*
X377631Y145503D01*
X377668Y145355D01*
Y145169D01*
Y145133D01*
Y144984D01*
X377631Y144836D01*
X377556Y144688D01*
X377519Y144651D01*
X377482Y144577D01*
X377260Y144392D01*
X377223D01*
X377112Y144355D01*
X376964Y144318D01*
X376816Y144281D01*
X376779D01*
X376668Y144318D01*
X376520Y144355D01*
X376372Y144429D01*
X376335D01*
X376260Y144503D01*
X376186Y144577D01*
X376075Y144688D01*
Y144725D01*
X376038Y144836D01*
X376001Y144984D01*
X375964Y145133D01*
Y145169D01*
Y145206D01*
X376001Y145392D01*
X376075Y145614D01*
X376223Y145836D01*
X376260Y145873D01*
X376372Y145984D01*
X376557Y146058D01*
X376816Y146095D01*
X376964D01*
X377112Y146021D01*
D02*
G37*
%LPC*%
G36*
X300306Y277664D02*
X300194D01*
X299917Y277609D01*
X299528Y277553D01*
X299083Y277331D01*
X299028Y277275D01*
X298972Y277220D01*
X298917D01*
X298861Y277164D01*
X298695Y276998D01*
X298472Y276775D01*
X298250Y276442D01*
X282307Y248889D01*
Y248834D01*
Y248778D01*
X282252Y248723D01*
X282196Y248500D01*
X282141Y248445D01*
X282085Y248167D01*
Y248112D01*
Y248001D01*
X282030Y247834D01*
Y247612D01*
X282085Y247112D01*
X282307Y246556D01*
X282363D01*
X282418Y246445D01*
X282529Y246278D01*
X282585Y246223D01*
X282752Y246001D01*
X282807D01*
X282863Y245890D01*
X283196Y245723D01*
X283696Y245501D01*
X284029Y245445D01*
X284363Y245390D01*
X316248Y245390D01*
Y245445D01*
X316637D01*
X316748Y245501D01*
X316970D01*
X317082Y245556D01*
X317415Y245723D01*
X317804Y246056D01*
X318248Y246556D01*
X318304Y246667D01*
X318415Y246889D01*
X318470Y247278D01*
X318526Y247723D01*
Y247778D01*
Y247945D01*
Y248056D01*
X318470Y248278D01*
X318359Y248556D01*
X318193Y248889D01*
Y248945D01*
X302305Y276498D01*
X302250D01*
X302194Y276553D01*
X302083Y276775D01*
Y276831D01*
X301972Y276887D01*
X301861Y276998D01*
X301805Y277053D01*
X301750Y277109D01*
X301416Y277331D01*
X300917Y277498D01*
X300639Y277609D01*
X300306D01*
Y277664D01*
D02*
G37*
%LPD*%
G36*
X303972Y268498D02*
X304416Y267943D01*
X304361Y267887D01*
X304194Y267776D01*
X303972Y267610D01*
X303694Y267332D01*
X303639Y267276D01*
X303527Y267110D01*
X303305Y266832D01*
X303083Y266499D01*
X303028Y266388D01*
X302861Y266054D01*
X302639Y265554D01*
X302416Y264943D01*
X302250Y264165D01*
X302194Y263332D01*
X302361Y262388D01*
X302472Y261944D01*
X302694Y261444D01*
X302750Y261388D01*
X302861Y261166D01*
X303083Y260833D01*
X303416Y260332D01*
X303472Y260222D01*
X303694Y259944D01*
X303916Y259555D01*
X304194Y259110D01*
X304250Y258999D01*
X304416Y258666D01*
X304527Y258166D01*
X304638Y257444D01*
Y257388D01*
Y257277D01*
Y256889D01*
Y256833D01*
Y256666D01*
Y256444D01*
X304583Y256277D01*
Y256166D01*
X304527Y255944D01*
X304416Y255555D01*
X304305Y255111D01*
X304083Y254666D01*
X303805Y254222D01*
X303472Y253889D01*
X303028Y253667D01*
X302639Y254833D01*
X302750Y254889D01*
X302805Y254944D01*
X302916Y255111D01*
X303028Y255277D01*
X303194Y255611D01*
X303305Y255944D01*
X303416Y256444D01*
Y256500D01*
Y256611D01*
Y256777D01*
Y256889D01*
Y256944D01*
Y257055D01*
Y257222D01*
Y257333D01*
Y257388D01*
X303361Y257500D01*
X303361Y257722D01*
X303250Y257999D01*
X303139Y258333D01*
X302972Y258722D01*
X302694Y259110D01*
X302416Y259555D01*
Y259610D01*
X302305Y259666D01*
X302083Y259999D01*
X301805Y260444D01*
X301583Y260888D01*
X301528Y260944D01*
X301472Y261166D01*
X301305Y261499D01*
X301194Y261944D01*
X301083Y262443D01*
X300972Y262999D01*
X300917Y263610D01*
X300972Y264221D01*
Y264277D01*
X301028Y264499D01*
X301083Y264832D01*
X301194Y265221D01*
X301361Y265665D01*
X301528Y266165D01*
X301805Y266721D01*
X302083Y267221D01*
X302139Y267332D01*
X302305Y267554D01*
X302527Y267832D01*
X302805Y268165D01*
X302861Y268221D01*
X303083Y268387D01*
X303361Y268665D01*
X303694Y268943D01*
X303972Y268498D01*
D02*
G37*
G36*
X300917D02*
X301305Y267943D01*
X301250Y267887D01*
X301083Y267776D01*
X300861Y267554D01*
X300583Y267332D01*
X300528Y267276D01*
X300417Y267110D01*
X300250Y266832D01*
X300028Y266499D01*
X299972Y266388D01*
X299806Y266054D01*
X299583Y265554D01*
X299361Y264943D01*
X299195Y264165D01*
X299139Y263332D01*
X299306Y262388D01*
X299417Y261944D01*
X299639Y261444D01*
X299694Y261388D01*
X299806Y261166D01*
X300028Y260777D01*
X300361Y260332D01*
X300417Y260222D01*
X300583Y259944D01*
X300805Y259555D01*
X301083Y259110D01*
X301139Y258999D01*
X301305Y258666D01*
X301472Y258166D01*
X301583Y257444D01*
Y257388D01*
Y257333D01*
Y257166D01*
Y256889D01*
Y256833D01*
Y256666D01*
X301528Y256444D01*
Y256277D01*
Y256166D01*
X301472Y255944D01*
X301361Y255555D01*
X301194Y255111D01*
X300972Y254666D01*
X300694Y254222D01*
X300361Y253889D01*
X299917Y253667D01*
X299528Y254833D01*
X299639Y254889D01*
X299694Y254944D01*
X299861Y255111D01*
X299972Y255277D01*
X300083Y255611D01*
X300194Y255944D01*
X300306Y256444D01*
Y256500D01*
Y256611D01*
Y256889D01*
Y256944D01*
Y257055D01*
Y257333D01*
Y257388D01*
Y257500D01*
X300250Y257722D01*
X300194Y257999D01*
X300028Y258333D01*
X299861Y258722D01*
X299639Y259110D01*
X299361Y259555D01*
Y259610D01*
X299250Y259721D01*
X299028Y260055D01*
X298750Y260499D01*
X298528Y260888D01*
X298472Y260944D01*
X298417Y261166D01*
X298250Y261499D01*
X298139Y261944D01*
X297972Y262443D01*
X297861Y262999D01*
X297806Y263610D01*
X297861Y264221D01*
Y264277D01*
X297917Y264499D01*
X297972Y264832D01*
X298083Y265221D01*
X298250Y265665D01*
X298472Y266165D01*
X298972Y267221D01*
X299028Y267332D01*
X299195Y267554D01*
X299417Y267832D01*
X299694Y268165D01*
X299750Y268221D01*
X299972Y268443D01*
X300250Y268665D01*
X300583Y268943D01*
X300917Y268498D01*
D02*
G37*
G36*
X297806D02*
X298250Y267943D01*
X298195D01*
X298139Y267887D01*
X297972Y267776D01*
X297750Y267554D01*
X297528Y267332D01*
X297473Y267276D01*
X297306Y267110D01*
X297139Y266832D01*
X296917Y266499D01*
X296861Y266388D01*
X296695Y266054D01*
X296473Y265554D01*
X296250Y264943D01*
X296084Y264165D01*
X296028Y263332D01*
X296195Y262388D01*
X296306Y261944D01*
X296528Y261444D01*
X296584Y261388D01*
X296695Y261166D01*
X296917Y260833D01*
X297250Y260332D01*
X297306Y260222D01*
X297473Y259944D01*
X297695Y259555D01*
X297972Y259110D01*
X298028Y258999D01*
X298195Y258666D01*
X298361Y258166D01*
X298472Y257444D01*
Y257388D01*
Y257222D01*
Y257055D01*
Y256889D01*
Y256833D01*
Y256666D01*
Y256444D01*
X298417Y256277D01*
Y256166D01*
X298361Y255944D01*
X298250Y255555D01*
X298083Y255111D01*
X297861Y254666D01*
X297584Y254222D01*
X297250Y253889D01*
X296806Y253667D01*
X296417Y254833D01*
X296528Y254889D01*
X296584Y254944D01*
X296750Y255111D01*
X296861Y255277D01*
X296972Y255611D01*
X297084Y255944D01*
X297195Y256444D01*
Y256500D01*
X297250Y256611D01*
Y256889D01*
Y256944D01*
Y256999D01*
Y257333D01*
Y257388D01*
X297195Y257500D01*
X297195Y257722D01*
X297084Y257999D01*
X296972Y258333D01*
X296806Y258722D01*
X296528Y259110D01*
X296250Y259555D01*
Y259610D01*
X296139Y259666D01*
X295917Y259999D01*
X295639Y260444D01*
X295417Y260888D01*
X295362Y260944D01*
X295306Y261166D01*
X295139Y261499D01*
X295028Y261944D01*
X294917Y262443D01*
X294806Y262999D01*
X294750Y263610D01*
X294806Y264221D01*
Y264277D01*
X294862Y264499D01*
X294917Y264832D01*
X295028Y265221D01*
X295139Y265665D01*
X295362Y266165D01*
X295584Y266721D01*
X295862Y267221D01*
X295917Y267332D01*
X296084Y267554D01*
X296306Y267832D01*
X296584Y268165D01*
X296695Y268276D01*
X296861Y268443D01*
X297195Y268721D01*
X297473Y268943D01*
X297806Y268498D01*
D02*
G37*
G36*
X309582Y250667D02*
X290973Y250667D01*
Y252222D01*
X309582Y252222D01*
Y250667D01*
D02*
G37*
%LPC*%
G36*
X382704Y173831D02*
X382630D01*
X382445Y173794D01*
X382185Y173757D01*
X381889Y173609D01*
X381852Y173572D01*
X381815Y173535D01*
X381778D01*
X381741Y173497D01*
X381630Y173386D01*
X381482Y173238D01*
X381334Y173016D01*
X370706Y154649D01*
Y154612D01*
Y154575D01*
X370669Y154538D01*
X370632Y154390D01*
X370595Y154353D01*
X370558Y154168D01*
Y154131D01*
Y154057D01*
X370521Y153946D01*
Y153797D01*
X370558Y153464D01*
X370706Y153094D01*
X370743D01*
X370780Y153020D01*
X370854Y152909D01*
X370891Y152872D01*
X371002Y152724D01*
X371039D01*
X371076Y152649D01*
X371298Y152539D01*
X371632Y152390D01*
X371854Y152353D01*
X372076Y152316D01*
X393331D01*
Y152353D01*
X393590D01*
X393665Y152390D01*
X393813D01*
X393887Y152427D01*
X394109Y152539D01*
X394368Y152761D01*
X394664Y153094D01*
X394701Y153168D01*
X394776Y153316D01*
X394812Y153575D01*
X394849Y153872D01*
Y153909D01*
Y154020D01*
Y154094D01*
X394812Y154242D01*
X394738Y154427D01*
X394627Y154649D01*
Y154686D01*
X384037Y173053D01*
X384000D01*
X383963Y173090D01*
X383889Y173238D01*
Y173275D01*
X383815Y173312D01*
X383740Y173386D01*
X383703Y173423D01*
X383666Y173460D01*
X383444Y173609D01*
X383111Y173720D01*
X382926Y173794D01*
X382704D01*
Y173831D01*
D02*
G37*
%LPD*%
G36*
X385148Y167721D02*
X385444Y167350D01*
X385407Y167313D01*
X385296Y167239D01*
X385148Y167128D01*
X384963Y166943D01*
X384926Y166906D01*
X384851Y166795D01*
X384703Y166610D01*
X384555Y166388D01*
X384518Y166314D01*
X384407Y166091D01*
X384259Y165758D01*
X384111Y165351D01*
X384000Y164832D01*
X383963Y164277D01*
X384074Y163647D01*
X384148Y163351D01*
X384296Y163018D01*
X384333Y162981D01*
X384407Y162833D01*
X384555Y162611D01*
X384777Y162277D01*
X384814Y162203D01*
X384963Y162018D01*
X385111Y161759D01*
X385296Y161463D01*
X385333Y161389D01*
X385444Y161167D01*
X385518Y160833D01*
X385592Y160352D01*
Y160315D01*
Y160241D01*
Y159982D01*
Y159944D01*
Y159833D01*
Y159685D01*
X385555Y159574D01*
Y159500D01*
X385518Y159352D01*
X385444Y159093D01*
X385370Y158797D01*
X385222Y158500D01*
X385037Y158204D01*
X384814Y157982D01*
X384518Y157834D01*
X384259Y158611D01*
X384333Y158648D01*
X384370Y158685D01*
X384444Y158797D01*
X384518Y158908D01*
X384629Y159130D01*
X384703Y159352D01*
X384777Y159685D01*
Y159722D01*
Y159796D01*
Y159907D01*
Y159982D01*
Y160019D01*
Y160093D01*
Y160204D01*
Y160278D01*
Y160315D01*
X384740Y160389D01*
Y160537D01*
X384666Y160722D01*
X384592Y160944D01*
X384481Y161204D01*
X384296Y161463D01*
X384111Y161759D01*
Y161796D01*
X384037Y161833D01*
X383889Y162055D01*
X383703Y162351D01*
X383555Y162648D01*
X383518Y162685D01*
X383481Y162833D01*
X383370Y163055D01*
X383296Y163351D01*
X383222Y163684D01*
X383148Y164055D01*
X383111Y164462D01*
X383148Y164869D01*
Y164907D01*
X383185Y165055D01*
X383222Y165277D01*
X383296Y165536D01*
X383407Y165832D01*
X383518Y166165D01*
X383703Y166536D01*
X383889Y166869D01*
X383926Y166943D01*
X384037Y167091D01*
X384185Y167276D01*
X384370Y167499D01*
X384407Y167536D01*
X384555Y167647D01*
X384740Y167832D01*
X384963Y168017D01*
X385148Y167721D01*
D02*
G37*
G36*
X383111D02*
X383370Y167350D01*
X383333Y167313D01*
X383222Y167239D01*
X383074Y167091D01*
X382889Y166943D01*
X382852Y166906D01*
X382778Y166795D01*
X382667Y166610D01*
X382519Y166388D01*
X382482Y166314D01*
X382370Y166091D01*
X382222Y165758D01*
X382074Y165351D01*
X381963Y164832D01*
X381926Y164277D01*
X382037Y163647D01*
X382111Y163351D01*
X382259Y163018D01*
X382296Y162981D01*
X382370Y162833D01*
X382519Y162574D01*
X382741Y162277D01*
X382778Y162203D01*
X382889Y162018D01*
X383037Y161759D01*
X383222Y161463D01*
X383259Y161389D01*
X383370Y161167D01*
X383481Y160833D01*
X383555Y160352D01*
Y160315D01*
Y160278D01*
Y160167D01*
Y159982D01*
Y159944D01*
Y159833D01*
X383518Y159685D01*
Y159574D01*
Y159500D01*
X383481Y159352D01*
X383407Y159093D01*
X383296Y158797D01*
X383148Y158500D01*
X382963Y158204D01*
X382741Y157982D01*
X382445Y157834D01*
X382185Y158611D01*
X382259Y158648D01*
X382296Y158685D01*
X382407Y158797D01*
X382482Y158908D01*
X382556Y159130D01*
X382630Y159352D01*
X382704Y159685D01*
Y159722D01*
Y159796D01*
Y159982D01*
Y160019D01*
Y160093D01*
Y160278D01*
Y160315D01*
Y160389D01*
X382667Y160537D01*
X382630Y160722D01*
X382519Y160944D01*
X382407Y161204D01*
X382259Y161463D01*
X382074Y161759D01*
Y161796D01*
X382000Y161870D01*
X381852Y162092D01*
X381667Y162388D01*
X381519Y162648D01*
X381482Y162685D01*
X381445Y162833D01*
X381334Y163055D01*
X381259Y163351D01*
X381148Y163684D01*
X381074Y164055D01*
X381037Y164462D01*
X381074Y164869D01*
Y164907D01*
X381111Y165055D01*
X381148Y165277D01*
X381223Y165536D01*
X381334Y165832D01*
X381482Y166165D01*
X381815Y166869D01*
X381852Y166943D01*
X381963Y167091D01*
X382111Y167276D01*
X382296Y167499D01*
X382333Y167536D01*
X382482Y167684D01*
X382667Y167832D01*
X382889Y168017D01*
X383111Y167721D01*
D02*
G37*
G36*
X381037D02*
X381334Y167350D01*
X381296D01*
X381259Y167313D01*
X381148Y167239D01*
X381000Y167091D01*
X380852Y166943D01*
X380815Y166906D01*
X380704Y166795D01*
X380593Y166610D01*
X380445Y166388D01*
X380408Y166314D01*
X380297Y166091D01*
X380149Y165758D01*
X380000Y165351D01*
X379889Y164832D01*
X379852Y164277D01*
X379963Y163647D01*
X380037Y163351D01*
X380186Y163018D01*
X380223Y162981D01*
X380297Y162833D01*
X380445Y162611D01*
X380667Y162277D01*
X380704Y162203D01*
X380815Y162018D01*
X380963Y161759D01*
X381148Y161463D01*
X381185Y161389D01*
X381296Y161167D01*
X381408Y160833D01*
X381482Y160352D01*
Y160315D01*
Y160204D01*
Y160093D01*
Y159982D01*
Y159944D01*
Y159833D01*
Y159685D01*
X381445Y159574D01*
Y159500D01*
X381408Y159352D01*
X381334Y159093D01*
X381223Y158797D01*
X381074Y158500D01*
X380889Y158204D01*
X380667Y157982D01*
X380371Y157834D01*
X380112Y158611D01*
X380186Y158648D01*
X380223Y158685D01*
X380334Y158797D01*
X380408Y158908D01*
X380482Y159130D01*
X380556Y159352D01*
X380630Y159685D01*
Y159722D01*
X380667Y159796D01*
Y159982D01*
Y160019D01*
Y160055D01*
Y160278D01*
Y160315D01*
X380630Y160389D01*
Y160537D01*
X380556Y160722D01*
X380482Y160944D01*
X380371Y161204D01*
X380186Y161463D01*
X380000Y161759D01*
Y161796D01*
X379926Y161833D01*
X379778Y162055D01*
X379593Y162351D01*
X379445Y162648D01*
X379408Y162685D01*
X379371Y162833D01*
X379260Y163055D01*
X379186Y163351D01*
X379112Y163684D01*
X379038Y164055D01*
X379001Y164462D01*
X379038Y164869D01*
Y164907D01*
X379075Y165055D01*
X379112Y165277D01*
X379186Y165536D01*
X379260Y165832D01*
X379408Y166165D01*
X379556Y166536D01*
X379741Y166869D01*
X379778Y166943D01*
X379889Y167091D01*
X380037Y167276D01*
X380223Y167499D01*
X380297Y167573D01*
X380408Y167684D01*
X380630Y167869D01*
X380815Y168017D01*
X381037Y167721D01*
D02*
G37*
G36*
X388888Y155834D02*
X376483D01*
Y156871D01*
X388888D01*
Y155834D01*
D02*
G37*
%LPC*%
G36*
X370632Y149798D02*
Y149724D01*
X370595Y149576D01*
X370521Y149391D01*
X370447Y149132D01*
X370039Y148095D01*
X371261D01*
X370891Y149058D01*
Y149095D01*
X370854Y149132D01*
X370780Y149317D01*
X370706Y149539D01*
X370632Y149798D01*
D02*
G37*
G36*
X391258Y149835D02*
X391183D01*
X390961Y149798D01*
X390665Y149687D01*
X390406Y149502D01*
X390332Y149428D01*
X390221Y149206D01*
X390147Y149058D01*
X390110Y148872D01*
X390036Y148613D01*
Y148354D01*
Y148317D01*
Y148243D01*
X390073Y148132D01*
Y147984D01*
X390184Y147651D01*
X390369Y147317D01*
X390443Y147243D01*
X390628Y147132D01*
X390887Y147021D01*
X391258Y146947D01*
X391332D01*
X391554Y146984D01*
X391850Y147095D01*
X392109Y147317D01*
Y147354D01*
X392183Y147391D01*
X392294Y147614D01*
X392406Y147947D01*
X392480Y148391D01*
Y148428D01*
Y148465D01*
Y148650D01*
X392406Y148872D01*
X392332Y149132D01*
X392294Y149206D01*
X392220Y149317D01*
X392072Y149502D01*
X391887Y149650D01*
X391850Y149687D01*
X391702Y149761D01*
X391480Y149798D01*
X391258Y149835D01*
D02*
G37*
G36*
X387332Y145873D02*
Y145836D01*
Y145762D01*
X387258Y145540D01*
X387073Y145021D01*
X387666D01*
X387480Y145503D01*
Y145540D01*
X387406Y145651D01*
X387332Y145873D01*
D02*
G37*
G36*
X384481D02*
X383815D01*
Y145281D01*
X384407D01*
X384555Y145318D01*
X384592D01*
X384629Y145355D01*
X384703Y145429D01*
X384740Y145466D01*
Y145577D01*
Y145614D01*
Y145651D01*
X384666Y145762D01*
X384629Y145799D01*
X384592Y145836D01*
X384481Y145873D01*
D02*
G37*
G36*
X376816D02*
X376668D01*
X376557Y145799D01*
X376409Y145725D01*
X376372Y145688D01*
X376335Y145577D01*
X376260Y145392D01*
X376223Y145133D01*
Y145095D01*
X376260Y144947D01*
X376297Y144762D01*
X376409Y144614D01*
X376446D01*
X376520Y144577D01*
X376631Y144540D01*
X376816Y144503D01*
X376853D01*
X377001Y144540D01*
X377112Y144577D01*
X377260Y144651D01*
X377297Y144688D01*
X377371Y144799D01*
X377408Y144947D01*
X377445Y145169D01*
Y145206D01*
Y145318D01*
X377371Y145540D01*
Y145577D01*
X377334Y145614D01*
X377149Y145799D01*
X377112D01*
X377038Y145836D01*
X376816Y145873D01*
D02*
G37*
%LPD*%
D10*
X185500Y259000D02*
X190500D01*
X178500D02*
X183500D01*
X185500Y265000D02*
X190500D01*
X178500D02*
X183500D01*
X190500Y259000D02*
Y265000D01*
X178500Y259000D02*
Y265000D01*
X381000Y250000D02*
Y255000D01*
Y243000D02*
Y248000D01*
X375000Y250000D02*
Y255000D01*
Y243000D02*
Y248000D01*
Y255000D02*
X381000D01*
X375000Y243000D02*
X381000D01*
X386000Y259000D02*
X391000D01*
X379000D02*
X384000D01*
X386000Y265000D02*
X391000D01*
X379000D02*
X384000D01*
X391000Y259000D02*
Y265000D01*
X379000Y259000D02*
Y265000D01*
X394000Y237000D02*
Y243000D01*
X382000Y237000D02*
Y243000D01*
X389000Y237000D02*
X394000D01*
X382000D02*
X387000D01*
X389000Y243000D02*
X394000D01*
X382000D02*
X387000D01*
X194000Y237000D02*
Y243000D01*
X182000Y237000D02*
Y243000D01*
X189000Y237000D02*
X194000D01*
X182000D02*
X187000D01*
X189000Y243000D02*
X194000D01*
X182000D02*
X187000D01*
X174500D02*
X180500D01*
X174500Y255000D02*
X180500D01*
X174500Y243000D02*
Y248000D01*
Y250000D02*
Y255000D01*
X180500Y243000D02*
Y248000D01*
Y250000D02*
Y255000D01*
D11*
X394500Y237000D02*
Y263000D01*
X426000D01*
Y237000D02*
Y263000D01*
X394500Y237000D02*
X426000D01*
X398500D02*
X402500D01*
Y230000D02*
Y237000D01*
X398500Y230000D02*
X402500D01*
X388500D02*
Y237000D01*
X392500D01*
X388500Y230000D02*
X392500D01*
X386500D02*
Y237000D01*
X198500D02*
X202500D01*
Y230000D02*
Y237000D01*
X198500Y230000D02*
X202500D01*
X188500D02*
Y237000D01*
X192500D01*
X188500Y230000D02*
X192500D01*
X186500D02*
Y237000D01*
X194500D02*
X226000D01*
Y263000D01*
X194500D02*
X226000D01*
X194500Y237000D02*
Y263000D01*
X312499Y188498D02*
X311499Y189498D01*
X309500D01*
X308500Y188498D01*
Y184500D01*
X309500Y183500D01*
X311499D01*
X312499Y184500D01*
Y186499D01*
X310499D01*
X314498Y183500D02*
Y189498D01*
X318497Y183500D01*
Y189498D01*
X320496D02*
Y183500D01*
X323495D01*
X324495Y184500D01*
Y188498D01*
X323495Y189498D01*
X320496D01*
X276000D02*
Y185499D01*
X277999Y183500D01*
X279999Y185499D01*
Y189498D01*
X285997Y188498D02*
X284997Y189498D01*
X282998D01*
X281998Y188498D01*
Y184500D01*
X282998Y183500D01*
X284997D01*
X285997Y184500D01*
X291995Y188498D02*
X290995Y189498D01*
X288996D01*
X287996Y188498D01*
Y184500D01*
X288996Y183500D01*
X290995D01*
X291995Y184500D01*
X419004Y190499D02*
Y184501D01*
X422003D01*
X423002Y185501D01*
Y189499D01*
X422003Y190499D01*
X419004D01*
X429000Y189499D02*
X428001Y190499D01*
X426001D01*
X425002Y189499D01*
Y188500D01*
X426001Y187500D01*
X428001D01*
X429000Y186500D01*
Y185501D01*
X428001Y184501D01*
X426001D01*
X425002Y185501D01*
X433999Y184501D02*
Y190499D01*
X431000Y187500D01*
X434998D01*
X436998Y190499D02*
Y184501D01*
X439997D01*
X440997Y185501D01*
Y186500D01*
X439997Y187500D01*
X436998D01*
X439997D01*
X440997Y188500D01*
Y189499D01*
X439997Y190499D01*
X436998D01*
X419004Y315499D02*
Y309501D01*
X422003D01*
X423002Y310501D01*
Y314499D01*
X422003Y315499D01*
X419004D01*
X429000Y314499D02*
X428001Y315499D01*
X426001D01*
X425002Y314499D01*
Y313500D01*
X426001Y312500D01*
X428001D01*
X429000Y311500D01*
Y310501D01*
X428001Y309501D01*
X426001D01*
X425002Y310501D01*
X431000Y314499D02*
X431999Y315499D01*
X433999D01*
X434998Y314499D01*
Y313500D01*
X433999Y312500D01*
X432999D01*
X433999D01*
X434998Y311500D01*
Y310501D01*
X433999Y309501D01*
X431999D01*
X431000Y310501D01*
X436998Y315499D02*
Y309501D01*
X439997D01*
X440997Y310501D01*
Y311500D01*
X439997Y312500D01*
X436998D01*
X439997D01*
X440997Y313500D01*
Y314499D01*
X439997Y315499D01*
X436998D01*
X359004D02*
Y309501D01*
X362003D01*
X363002Y310501D01*
Y314499D01*
X362003Y315499D01*
X359004D01*
X369000Y314499D02*
X368001Y315499D01*
X366001D01*
X365002Y314499D01*
Y313500D01*
X366001Y312500D01*
X368001D01*
X369000Y311500D01*
Y310501D01*
X368001Y309501D01*
X366001D01*
X365002Y310501D01*
X374998Y309501D02*
X371000D01*
X374998Y313500D01*
Y314499D01*
X373999Y315499D01*
X371999D01*
X371000Y314499D01*
X376998Y315499D02*
Y309501D01*
X379997D01*
X380996Y310501D01*
Y311500D01*
X379997Y312500D01*
X376998D01*
X379997D01*
X380996Y313500D01*
Y314499D01*
X379997Y315499D01*
X376998D01*
X359503Y190499D02*
Y184501D01*
X362502D01*
X363502Y185501D01*
Y189499D01*
X362502Y190499D01*
X359503D01*
X369500Y189499D02*
X368500Y190499D01*
X366501D01*
X365501Y189499D01*
Y188500D01*
X366501Y187500D01*
X368500D01*
X369500Y186500D01*
Y185501D01*
X368500Y184501D01*
X366501D01*
X365501Y185501D01*
X371499Y184501D02*
X373499D01*
X372499D01*
Y190499D01*
X371499Y189499D01*
X376498Y190499D02*
Y184501D01*
X379497D01*
X380497Y185501D01*
Y186500D01*
X379497Y187500D01*
X376498D01*
X379497D01*
X380497Y188500D01*
Y189499D01*
X379497Y190499D01*
X376498D01*
X219004D02*
Y184501D01*
X222003D01*
X223002Y185501D01*
Y189499D01*
X222003Y190499D01*
X219004D01*
X229000Y189499D02*
X228001Y190499D01*
X226001D01*
X225002Y189499D01*
Y188500D01*
X226001Y187500D01*
X228001D01*
X229000Y186500D01*
Y185501D01*
X228001Y184501D01*
X226001D01*
X225002Y185501D01*
X233999Y184501D02*
Y190499D01*
X231000Y187500D01*
X234998D01*
X236998Y184501D02*
Y188500D01*
X238997Y190499D01*
X240997Y188500D01*
Y184501D01*
Y187500D01*
X236998D01*
X219004Y315499D02*
Y309501D01*
X222003D01*
X223002Y310501D01*
Y314499D01*
X222003Y315499D01*
X219004D01*
X229000Y314499D02*
X228001Y315499D01*
X226001D01*
X225002Y314499D01*
Y313500D01*
X226001Y312500D01*
X228001D01*
X229000Y311500D01*
Y310501D01*
X228001Y309501D01*
X226001D01*
X225002Y310501D01*
X231000Y314499D02*
X231999Y315499D01*
X233999D01*
X234998Y314499D01*
Y313500D01*
X233999Y312500D01*
X232999D01*
X233999D01*
X234998Y311500D01*
Y310501D01*
X233999Y309501D01*
X231999D01*
X231000Y310501D01*
X236998Y309501D02*
Y313500D01*
X238997Y315499D01*
X240997Y313500D01*
Y309501D01*
Y312500D01*
X236998D01*
X159004Y315499D02*
Y309501D01*
X162003D01*
X163002Y310501D01*
Y314499D01*
X162003Y315499D01*
X159004D01*
X169000Y314499D02*
X168001Y315499D01*
X166001D01*
X165002Y314499D01*
Y313500D01*
X166001Y312500D01*
X168001D01*
X169000Y311500D01*
Y310501D01*
X168001Y309501D01*
X166001D01*
X165002Y310501D01*
X174998Y309501D02*
X171000D01*
X174998Y313500D01*
Y314499D01*
X173999Y315499D01*
X171999D01*
X171000Y314499D01*
X176998Y309501D02*
Y313500D01*
X178997Y315499D01*
X180997Y313500D01*
Y309501D01*
Y312500D01*
X176998D01*
X159503Y190499D02*
Y184501D01*
X162502D01*
X163502Y185501D01*
Y189499D01*
X162502Y190499D01*
X159503D01*
X169500Y189499D02*
X168500Y190499D01*
X166501D01*
X165501Y189499D01*
Y188500D01*
X166501Y187500D01*
X168500D01*
X169500Y186500D01*
Y185501D01*
X168500Y184501D01*
X166501D01*
X165501Y185501D01*
X171500Y184501D02*
X173499D01*
X172499D01*
Y190499D01*
X171500Y189499D01*
X176498Y184501D02*
Y188500D01*
X178497Y190499D01*
X180497Y188500D01*
Y184501D01*
Y187500D01*
X176498D01*
X380501Y271999D02*
X379502Y272999D01*
X377502D01*
X376503Y271999D01*
Y268001D01*
X377502Y267001D01*
X379502D01*
X380501Y268001D01*
X382501Y267001D02*
X385500D01*
X386499Y268001D01*
X385500Y269000D01*
X383500D01*
X382501Y270000D01*
X383500Y271000D01*
X386499D01*
X388499Y272999D02*
Y267001D01*
X391498D01*
X392497Y268001D01*
Y269000D01*
X391498Y270000D01*
X388499D01*
X391498D01*
X392497Y271000D01*
Y271999D01*
X391498Y272999D01*
X388499D01*
X180501Y271999D02*
X179502Y272999D01*
X177502D01*
X176503Y271999D01*
Y268001D01*
X177502Y267001D01*
X179502D01*
X180501Y268001D01*
X182501Y267001D02*
X185500D01*
X186499Y268001D01*
X185500Y269000D01*
X183500D01*
X182501Y270000D01*
X183500Y271000D01*
X186499D01*
X188499Y267001D02*
Y271000D01*
X190498Y272999D01*
X192497Y271000D01*
Y267001D01*
Y270000D01*
X188499D01*
X372999Y243002D02*
X367001D01*
Y246002D01*
X368001Y247001D01*
X370000D01*
X371000Y246002D01*
Y243002D01*
Y245002D02*
X372999Y247001D01*
Y249001D02*
Y251000D01*
Y250000D01*
X367001D01*
X368001Y249001D01*
X367001Y253999D02*
X372999D01*
Y256998D01*
X371999Y257998D01*
X371000D01*
X370000Y256998D01*
Y253999D01*
Y256998D01*
X369000Y257998D01*
X368001D01*
X367001Y256998D01*
Y253999D01*
X172499Y243002D02*
X166501D01*
Y246002D01*
X167501Y247001D01*
X169500D01*
X170500Y246002D01*
Y243002D01*
Y245002D02*
X172499Y247001D01*
Y249001D02*
Y251000D01*
Y250000D01*
X166501D01*
X167501Y249001D01*
X172499Y253999D02*
X168500D01*
X166501Y255998D01*
X168500Y257998D01*
X172499D01*
X169500D01*
Y253999D01*
X402002Y270999D02*
Y265001D01*
X406001D01*
X408001D02*
X410000D01*
X409000D01*
Y270999D01*
X408001Y269999D01*
X412999Y270999D02*
Y265001D01*
X415998D01*
X416998Y266001D01*
Y267000D01*
X415998Y268000D01*
X412999D01*
X415998D01*
X416998Y269000D01*
Y269999D01*
X415998Y270999D01*
X412999D01*
X202502D02*
Y265001D01*
X206501D01*
X208501D02*
X210500D01*
X209500D01*
Y270999D01*
X208501Y269999D01*
X213499Y265001D02*
Y269000D01*
X215498Y270999D01*
X217498Y269000D01*
Y265001D01*
Y268000D01*
X213499D01*
X387502Y227999D02*
Y222001D01*
X390501D01*
X391501Y223001D01*
Y226999D01*
X390501Y227999D01*
X387502D01*
X393500Y222001D02*
X395500D01*
X394500D01*
Y227999D01*
X393500Y226999D01*
X398499Y227999D02*
Y222001D01*
X401498D01*
X402498Y223001D01*
Y224000D01*
X401498Y225000D01*
X398499D01*
X401498D01*
X402498Y226000D01*
Y226999D01*
X401498Y227999D01*
X398499D01*
X187002D02*
Y222001D01*
X190001D01*
X191001Y223001D01*
Y226999D01*
X190001Y227999D01*
X187002D01*
X193000Y222001D02*
X195000D01*
X194000D01*
Y227999D01*
X193000Y226999D01*
X197999Y222001D02*
Y226000D01*
X199998Y227999D01*
X201998Y226000D01*
Y222001D01*
Y225000D01*
X197999D01*
X369001Y239499D02*
X368002Y240499D01*
X366002D01*
X365002Y239499D01*
Y235501D01*
X366002Y234501D01*
X368002D01*
X369001Y235501D01*
X371001Y234501D02*
X373000D01*
X372000D01*
Y240499D01*
X371001Y239499D01*
X375999Y240499D02*
Y234501D01*
X378998D01*
X379998Y235501D01*
Y236500D01*
X378998Y237500D01*
X375999D01*
X378998D01*
X379998Y238500D01*
Y239499D01*
X378998Y240499D01*
X375999D01*
X168501Y239499D02*
X167501Y240499D01*
X165502D01*
X164502Y239499D01*
Y235501D01*
X165502Y234501D01*
X167501D01*
X168501Y235501D01*
X170501Y234501D02*
X172500D01*
X171500D01*
Y240499D01*
X170501Y239499D01*
X175499Y234501D02*
Y238500D01*
X177498Y240499D01*
X179498Y238500D01*
Y234501D01*
Y237500D01*
X175499D01*
D12*
X212699Y164354D02*
Y168353D01*
X211699Y169353D01*
X209700D01*
X208700Y168353D01*
Y164354D01*
X209700Y163355D01*
X211699D01*
X210699Y165354D02*
X212699Y163355D01*
X211699D02*
X212699Y164354D01*
X214698Y169353D02*
Y164354D01*
X215698Y163355D01*
X217697D01*
X218697Y164354D01*
Y169353D01*
X220696D02*
X224695D01*
X222695D01*
Y163355D01*
X226694D02*
Y169353D01*
X228694Y167353D01*
X230693Y169353D01*
Y163355D01*
X236691Y168353D02*
X235691Y169353D01*
X233692D01*
X232692Y168353D01*
Y167353D01*
X233692Y166354D01*
X235691D01*
X236691Y165354D01*
Y164354D01*
X235691Y163355D01*
X233692D01*
X232692Y164354D01*
X208700Y159275D02*
Y153277D01*
X211699D01*
X212699Y154277D01*
Y155276D01*
X211699Y156276D01*
X208700D01*
X211699D01*
X212699Y157276D01*
Y158275D01*
X211699Y159275D01*
X208700D01*
X214698Y157276D02*
Y153277D01*
Y155276D01*
X215698Y156276D01*
X216697Y157276D01*
X217697D01*
X221696D02*
X223695D01*
X224695Y156276D01*
Y153277D01*
X221696D01*
X220696Y154277D01*
X221696Y155276D01*
X224695D01*
X226694Y153277D02*
Y159275D01*
Y155276D02*
X229693Y157276D01*
X226694Y155276D02*
X229693Y153277D01*
X235691D02*
X233692D01*
X232692Y154277D01*
Y156276D01*
X233692Y157276D01*
X235691D01*
X236691Y156276D01*
Y155276D01*
X232692D01*
X244688Y159275D02*
Y153277D01*
X248687D01*
X250686D02*
X252686D01*
X251686D01*
Y157276D01*
X250686D01*
X257684Y151278D02*
X258684D01*
X259683Y152277D01*
Y157276D01*
X256684D01*
X255685Y156276D01*
Y154277D01*
X256684Y153277D01*
X259683D01*
X261683Y159275D02*
Y153277D01*
Y156276D01*
X262683Y157276D01*
X264682D01*
X265682Y156276D01*
Y153277D01*
X268681Y158275D02*
Y157276D01*
X267681D01*
X269680D01*
X268681D01*
Y154277D01*
X269680Y153277D01*
X208700Y141200D02*
X210699D01*
X209700D01*
Y147198D01*
X208700Y146198D01*
X213698D02*
X214698Y147198D01*
X216697D01*
X217697Y146198D01*
Y142200D01*
X216697Y141200D01*
X214698D01*
X213698Y142200D01*
Y146198D01*
X219696Y144199D02*
X223695D01*
X225694Y141200D02*
X227694D01*
X226694D01*
Y147198D01*
X225694Y146198D01*
X234692Y147198D02*
X230693D01*
Y144199D01*
X232692Y145199D01*
X233692D01*
X234692Y144199D01*
Y142200D01*
X233692Y141200D01*
X231693D01*
X230693Y142200D01*
X236691Y147198D02*
Y143199D01*
X238690Y141200D01*
X240690Y143199D01*
Y147198D01*
M02*
